G04 #@! TF.FileFunction,Copper,L1,Top,Signal*
%FSLAX46Y46*%
G04 Gerber Fmt 4.6, Leading zero omitted, Abs format (unit mm)*
G04 Created by KiCad (PCBNEW 4.0.6-e0-6349~53~ubuntu16.04.1) date Sun Jul  2 13:03:49 2017*
%MOMM*%
%LPD*%
G01*
G04 APERTURE LIST*
%ADD10C,0.100000*%
%ADD11R,1.700000X1.700000*%
%ADD12O,1.700000X1.700000*%
%ADD13R,3.500000X2.000000*%
%ADD14R,1.500000X1.300000*%
%ADD15R,1.500000X1.250000*%
%ADD16O,1.630000X0.450000*%
%ADD17R,0.850000X1.300000*%
%ADD18R,1.000000X2.000000*%
%ADD19R,1.600000X2.200000*%
%ADD20R,1.250000X1.500000*%
%ADD21R,1.300000X1.500000*%
%ADD22R,1.550000X1.300000*%
%ADD23C,0.600000*%
%ADD24C,0.700000*%
%ADD25C,0.400000*%
%ADD26C,0.250000*%
%ADD27C,0.254000*%
G04 APERTURE END LIST*
D10*
D11*
X170942000Y-140970000D03*
D12*
X173482000Y-140970000D03*
X176022000Y-140970000D03*
D13*
X160020000Y-118500000D03*
X160020000Y-148500000D03*
D11*
X158750000Y-112522000D03*
D12*
X161290000Y-112522000D03*
D14*
X175169800Y-132765800D03*
X172469800Y-132765800D03*
D15*
X172569800Y-125628400D03*
X175069800Y-125628400D03*
D16*
X175589800Y-129438400D03*
X175589800Y-128488400D03*
X175589800Y-127538400D03*
X171909800Y-127538400D03*
X171909800Y-128488400D03*
X171909800Y-129438400D03*
D17*
X173324800Y-127838400D03*
X173324800Y-129138400D03*
X174174800Y-127838400D03*
X174174800Y-129138400D03*
D14*
X175169800Y-135305800D03*
X172469800Y-135305800D03*
D18*
X179400000Y-129200000D03*
X180670000Y-129200000D03*
X181940000Y-129200000D03*
X183210000Y-129200000D03*
X184480000Y-129200000D03*
X185750000Y-129200000D03*
X187020000Y-129200000D03*
X188290000Y-129200000D03*
D19*
X183000000Y-133000000D03*
X183000000Y-136000000D03*
D20*
X179750000Y-135250000D03*
X179750000Y-132750000D03*
D21*
X183032400Y-140153400D03*
X183032400Y-142853400D03*
X180492400Y-140153400D03*
X180492400Y-142853400D03*
D11*
X158750000Y-115570000D03*
D12*
X161290000Y-115570000D03*
D11*
X152400000Y-121158000D03*
D12*
X154940000Y-121158000D03*
D11*
X165100000Y-121158000D03*
D12*
X167640000Y-121158000D03*
X170180000Y-121158000D03*
X172720000Y-121158000D03*
X175260000Y-121158000D03*
D22*
X169756000Y-148808000D03*
X169756000Y-144308000D03*
X177716000Y-144308000D03*
X177716000Y-148808000D03*
D23*
X174174800Y-129138400D03*
X173324800Y-129138400D03*
X174174800Y-127838400D03*
X173324800Y-127838400D03*
D24*
X152908000Y-129032000D03*
X169164000Y-137160000D03*
X160274000Y-131730312D03*
X168910000Y-128270000D03*
X176808069Y-126410151D03*
X162560000Y-148336000D03*
X184404000Y-133096000D03*
D23*
X159639000Y-134848600D03*
X156425997Y-137922000D03*
X166703977Y-122866255D03*
X167579058Y-122875058D03*
X161544000Y-133096000D03*
X162109687Y-132530313D03*
X161243543Y-138025771D03*
X160528000Y-137668000D03*
X158013400Y-134848600D03*
X157226000Y-138430000D03*
D25*
X175875774Y-138825772D02*
X175169800Y-138119798D01*
X175169800Y-138119798D02*
X175169800Y-135305800D01*
X180492400Y-140153400D02*
X177203402Y-140153400D01*
X177203402Y-140153400D02*
X175875774Y-138825772D01*
X175875774Y-138825772D02*
X159907772Y-138825772D01*
X178967400Y-140153400D02*
X180492400Y-140153400D01*
X183032400Y-136032400D02*
X183000000Y-136000000D01*
X159907772Y-138825772D02*
X154090001Y-133008001D01*
X179400000Y-129200000D02*
X179400000Y-130600000D01*
X179400000Y-130600000D02*
X177234200Y-132765800D01*
X177234200Y-132765800D02*
X176319800Y-132765800D01*
X176319800Y-132765800D02*
X175169800Y-132765800D01*
X175169800Y-135305800D02*
X175169800Y-132765800D01*
X179750000Y-135250000D02*
X175225600Y-135250000D01*
X175225600Y-135250000D02*
X175169800Y-135305800D01*
X175169800Y-135305800D02*
X175069800Y-135305800D01*
X179400000Y-129200000D02*
X179400000Y-127800000D01*
X179400000Y-127800000D02*
X176103399Y-124503399D01*
X176103399Y-124503399D02*
X173819801Y-124503399D01*
X173819801Y-124503399D02*
X172694800Y-125628400D01*
X172694800Y-125628400D02*
X172569800Y-125628400D01*
X172569800Y-125628400D02*
X171419800Y-125628400D01*
X170594790Y-128388390D02*
X170694800Y-128488400D01*
X171419800Y-125628400D02*
X170594790Y-126453410D01*
X170594790Y-126453410D02*
X170594790Y-128388390D01*
X170694800Y-128488400D02*
X171909800Y-128488400D01*
X154090001Y-129794000D02*
X154090001Y-129032000D01*
X154090001Y-129032000D02*
X154090001Y-122007999D01*
X152908000Y-129032000D02*
X154090001Y-129032000D01*
X179400000Y-129200000D02*
X179400000Y-129086998D01*
X180492400Y-140153400D02*
X183032400Y-140153400D01*
X154090001Y-130556000D02*
X154090001Y-129794000D01*
X154090001Y-133008001D02*
X154090001Y-129794000D01*
X154090001Y-130556000D02*
X154090001Y-131171003D01*
X154090001Y-122007999D02*
X154940000Y-121158000D01*
X179400000Y-128700000D02*
X179400000Y-129200000D01*
X179750000Y-135250000D02*
X182250000Y-135250000D01*
X182250000Y-135250000D02*
X183000000Y-136000000D01*
X160020000Y-118500000D02*
X157598000Y-118500000D01*
X157598000Y-118500000D02*
X154940000Y-121158000D01*
X176904810Y-126313410D02*
X176808069Y-126410151D01*
X176808069Y-126410151D02*
X176904810Y-128388390D01*
X175069800Y-125628400D02*
X176219800Y-125628400D01*
X176804800Y-128488400D02*
X175589800Y-128488400D01*
X176219800Y-125628400D02*
X176904810Y-126313410D01*
X176904810Y-128388390D02*
X176804800Y-128488400D01*
X169756000Y-148808000D02*
X170931000Y-148808000D01*
X170931000Y-148808000D02*
X177716000Y-148808000D01*
X169756000Y-148808000D02*
X163032000Y-148808000D01*
X163032000Y-148808000D02*
X162560000Y-148336000D01*
X162396000Y-148500000D02*
X162560000Y-148336000D01*
X160020000Y-148500000D02*
X162396000Y-148500000D01*
X169284000Y-148336000D02*
X169756000Y-148808000D01*
X183000000Y-133000000D02*
X184308000Y-133000000D01*
X184308000Y-133000000D02*
X184404000Y-133096000D01*
X180975000Y-132750000D02*
X182750000Y-132750000D01*
X179750000Y-132750000D02*
X180975000Y-132750000D01*
X179750000Y-132750000D02*
X180670000Y-131830000D01*
X180670000Y-131830000D02*
X180670000Y-129200000D01*
X182750000Y-132750000D02*
X183000000Y-133000000D01*
D26*
X166637231Y-122007999D02*
X166790001Y-122007999D01*
X166790001Y-122007999D02*
X167640000Y-121158000D01*
X165989000Y-122656230D02*
X166637231Y-122007999D01*
X167640000Y-121158000D02*
X167487600Y-121158000D01*
X159639000Y-134848600D02*
X160316589Y-134171011D01*
X160316589Y-134171011D02*
X162030402Y-134171010D01*
X162030402Y-134171010D02*
X165989000Y-130212412D01*
X165989000Y-130212412D02*
X165989000Y-122656230D01*
X176022000Y-140970000D02*
X174746999Y-139694999D01*
X174746999Y-139694999D02*
X159416001Y-139694999D01*
X159416001Y-139694999D02*
X157343003Y-137622001D01*
X157343003Y-137622001D02*
X156725996Y-137622001D01*
X156725996Y-137622001D02*
X156425997Y-137922000D01*
X180492400Y-142853400D02*
X177905400Y-142853400D01*
X177905400Y-142853400D02*
X176022000Y-140970000D01*
X180492400Y-142753400D02*
X180492400Y-142853400D01*
X181940000Y-129200000D02*
X181940000Y-127950000D01*
X181940000Y-127950000D02*
X177490059Y-123500059D01*
X177490059Y-123500059D02*
X166913517Y-123500059D01*
X166913517Y-123500059D02*
X166703977Y-123290519D01*
X166703977Y-123290519D02*
X166703977Y-122866255D01*
X166703977Y-122924979D02*
X166703977Y-122866255D01*
X178196000Y-122936000D02*
X167640000Y-122936000D01*
X167640000Y-122936000D02*
X167579058Y-122875058D01*
X178196000Y-122936000D02*
X183210000Y-127950000D01*
X183210000Y-127950000D02*
X183210000Y-129200000D01*
X185750000Y-129200000D02*
X185750000Y-127950000D01*
X173284001Y-122333001D02*
X171355001Y-122333001D01*
X185750000Y-127950000D02*
X177782999Y-119982999D01*
X177782999Y-119982999D02*
X174695999Y-119982999D01*
X174695999Y-119982999D02*
X173895001Y-120783997D01*
X173895001Y-120783997D02*
X173895001Y-121722001D01*
X171029999Y-122007999D02*
X170180000Y-121158000D01*
X173895001Y-121722001D02*
X173284001Y-122333001D01*
X171355001Y-122333001D02*
X171029999Y-122007999D01*
X187020000Y-129200000D02*
X187020000Y-127950000D01*
X187020000Y-127950000D02*
X178602989Y-119532989D01*
X178602989Y-119532989D02*
X174345011Y-119532989D01*
X174345011Y-119532989D02*
X173569999Y-120308001D01*
X173569999Y-120308001D02*
X172720000Y-121158000D01*
X184480000Y-129200000D02*
X184480000Y-127950000D01*
X184480000Y-127950000D02*
X177688000Y-121158000D01*
X177688000Y-121158000D02*
X176462081Y-121158000D01*
X176462081Y-121158000D02*
X175260000Y-121158000D01*
X161544000Y-133096000D02*
X161544000Y-132889628D01*
X162195001Y-131428999D02*
X162195001Y-116475001D01*
X162195001Y-116475001D02*
X162139999Y-116419999D01*
X161544000Y-132889628D02*
X161484686Y-132830314D01*
X161484686Y-132830314D02*
X161484686Y-132139314D01*
X161484686Y-132139314D02*
X162195001Y-131428999D01*
X162139999Y-116419999D02*
X161290000Y-115570000D01*
X162109687Y-132530313D02*
X162814000Y-131826000D01*
X162814000Y-131826000D02*
X162814000Y-115354998D01*
X162814000Y-115354998D02*
X161854001Y-114394999D01*
X161854001Y-114394999D02*
X158825001Y-114394999D01*
X158825001Y-114394999D02*
X158750000Y-114470000D01*
X158750000Y-114470000D02*
X158750000Y-115570000D01*
X172469800Y-135305800D02*
X172569800Y-135305800D01*
X172569800Y-135305800D02*
X173994799Y-133880801D01*
X173994799Y-133880801D02*
X173994799Y-131508401D01*
X173994799Y-131508401D02*
X175589800Y-129913400D01*
X175589800Y-129913400D02*
X175589800Y-129438400D01*
X167309800Y-136753600D02*
X168757600Y-135305800D01*
X168757600Y-135305800D02*
X172469800Y-135305800D01*
X162515714Y-136753600D02*
X167309800Y-136753600D01*
X161243543Y-138025771D02*
X162515714Y-136753600D01*
X171909800Y-129438400D02*
X171909800Y-132205800D01*
X171909800Y-132205800D02*
X172469800Y-132765800D01*
X167074010Y-136303590D02*
X170611800Y-132765800D01*
X170611800Y-132765800D02*
X172469800Y-132765800D01*
X160528000Y-137668000D02*
X161892410Y-136303590D01*
X161892410Y-136303590D02*
X167074010Y-136303590D01*
X158013400Y-134848600D02*
X159140999Y-133721001D01*
X159140999Y-133721001D02*
X161844001Y-133721001D01*
X161844001Y-133721001D02*
X165100000Y-130465002D01*
X165100000Y-130465002D02*
X165100000Y-122258000D01*
X165100000Y-122258000D02*
X165100000Y-121158000D01*
X159766000Y-140970000D02*
X170942000Y-140970000D01*
X169756000Y-144308000D02*
X169756000Y-141056000D01*
X169756000Y-141056000D02*
X169842000Y-140970000D01*
X169842000Y-140970000D02*
X170942000Y-140970000D01*
X177716000Y-144308000D02*
X181677800Y-144308000D01*
X181677800Y-144308000D02*
X183032400Y-142953400D01*
X183032400Y-142953400D02*
X183032400Y-142853400D01*
X157226000Y-138430000D02*
X159766000Y-140970000D01*
X169756000Y-144308000D02*
X170781000Y-144308000D01*
X170781000Y-144308000D02*
X177716000Y-144308000D01*
X177841000Y-144308000D02*
X177716000Y-144308000D01*
D27*
G36*
X157252560Y-113372000D02*
X157296838Y-113607317D01*
X157435910Y-113823441D01*
X157648110Y-113968431D01*
X157900000Y-114019440D01*
X158154574Y-114019440D01*
X158119080Y-114072560D01*
X157900000Y-114072560D01*
X157664683Y-114116838D01*
X157448559Y-114255910D01*
X157303569Y-114468110D01*
X157252560Y-114720000D01*
X157252560Y-116420000D01*
X157296838Y-116655317D01*
X157435910Y-116871441D01*
X157648110Y-117016431D01*
X157809533Y-117049120D01*
X157673569Y-117248110D01*
X157622560Y-117500000D01*
X157622560Y-117665000D01*
X157598000Y-117665000D01*
X157278460Y-117728560D01*
X157007566Y-117909566D01*
X155217939Y-119699193D01*
X154940000Y-119643907D01*
X154371715Y-119756946D01*
X153889946Y-120078853D01*
X153860597Y-120122777D01*
X153788327Y-119948302D01*
X153609699Y-119769673D01*
X153376310Y-119673000D01*
X152685750Y-119673000D01*
X152527000Y-119831750D01*
X152527000Y-121031000D01*
X152547000Y-121031000D01*
X152547000Y-121285000D01*
X152527000Y-121285000D01*
X152527000Y-122484250D01*
X152685750Y-122643000D01*
X153255001Y-122643000D01*
X153255001Y-128109546D01*
X153104788Y-128047172D01*
X152712931Y-128046830D01*
X152350771Y-128196471D01*
X152073445Y-128473314D01*
X151923172Y-128835212D01*
X151922830Y-129227069D01*
X152072471Y-129589229D01*
X152349314Y-129866555D01*
X152711212Y-130016828D01*
X153103069Y-130017170D01*
X153255001Y-129954393D01*
X153255001Y-133008001D01*
X153318562Y-133327542D01*
X153412989Y-133468862D01*
X153499567Y-133598435D01*
X156763133Y-136862001D01*
X156725996Y-136862001D01*
X156435157Y-136919853D01*
X156334784Y-136986920D01*
X156240830Y-136986838D01*
X155897054Y-137128883D01*
X155633805Y-137391673D01*
X155491159Y-137735201D01*
X155490835Y-138107167D01*
X155632880Y-138450943D01*
X155895670Y-138714192D01*
X156239198Y-138856838D01*
X156390749Y-138856970D01*
X156432883Y-138958943D01*
X156695673Y-139222192D01*
X157039201Y-139364838D01*
X157086077Y-139364879D01*
X159228599Y-141507401D01*
X159475160Y-141672148D01*
X159523414Y-141681746D01*
X159766000Y-141730000D01*
X168996000Y-141730000D01*
X168996000Y-143010560D01*
X168981000Y-143010560D01*
X168745683Y-143054838D01*
X168529559Y-143193910D01*
X168384569Y-143406110D01*
X168333560Y-143658000D01*
X168333560Y-144958000D01*
X168377838Y-145193317D01*
X168516910Y-145409441D01*
X168729110Y-145554431D01*
X168981000Y-145605440D01*
X170531000Y-145605440D01*
X170766317Y-145561162D01*
X170982441Y-145422090D01*
X171127431Y-145209890D01*
X171156164Y-145068000D01*
X176314258Y-145068000D01*
X176337838Y-145193317D01*
X176476910Y-145409441D01*
X176689110Y-145554431D01*
X176941000Y-145605440D01*
X178491000Y-145605440D01*
X178726317Y-145561162D01*
X178942441Y-145422090D01*
X179087431Y-145209890D01*
X179116164Y-145068000D01*
X181677800Y-145068000D01*
X181968639Y-145010148D01*
X182215201Y-144845401D01*
X182809762Y-144250840D01*
X183682400Y-144250840D01*
X183917717Y-144206562D01*
X184133841Y-144067490D01*
X184278831Y-143855290D01*
X184329840Y-143603400D01*
X184329840Y-142103400D01*
X184285562Y-141868083D01*
X184146490Y-141651959D01*
X183934290Y-141506969D01*
X183921203Y-141504319D01*
X184133841Y-141367490D01*
X184278831Y-141155290D01*
X184329840Y-140903400D01*
X184329840Y-139403400D01*
X184285562Y-139168083D01*
X184146490Y-138951959D01*
X183934290Y-138806969D01*
X183682400Y-138755960D01*
X182382400Y-138755960D01*
X182147083Y-138800238D01*
X181930959Y-138939310D01*
X181785969Y-139151510D01*
X181763407Y-139262923D01*
X181745562Y-139168083D01*
X181606490Y-138951959D01*
X181394290Y-138806969D01*
X181142400Y-138755960D01*
X179842400Y-138755960D01*
X179607083Y-138800238D01*
X179390959Y-138939310D01*
X179245969Y-139151510D01*
X179212173Y-139318400D01*
X177549270Y-139318400D01*
X176004800Y-137773930D01*
X176004800Y-136587246D01*
X176155117Y-136558962D01*
X176371241Y-136419890D01*
X176516231Y-136207690D01*
X176541076Y-136085000D01*
X178493554Y-136085000D01*
X178521838Y-136235317D01*
X178660910Y-136451441D01*
X178873110Y-136596431D01*
X179125000Y-136647440D01*
X180375000Y-136647440D01*
X180610317Y-136603162D01*
X180826441Y-136464090D01*
X180971431Y-136251890D01*
X181005227Y-136085000D01*
X181552560Y-136085000D01*
X181552560Y-137100000D01*
X181596838Y-137335317D01*
X181735910Y-137551441D01*
X181948110Y-137696431D01*
X182200000Y-137747440D01*
X183800000Y-137747440D01*
X184035317Y-137703162D01*
X184251441Y-137564090D01*
X184396431Y-137351890D01*
X184447440Y-137100000D01*
X184447440Y-134900000D01*
X184403162Y-134664683D01*
X184297518Y-134500507D01*
X184338327Y-134459698D01*
X184435000Y-134226309D01*
X184435000Y-133285750D01*
X184276250Y-133127000D01*
X183127000Y-133127000D01*
X183127000Y-133147000D01*
X182873000Y-133147000D01*
X182873000Y-133127000D01*
X181723750Y-133127000D01*
X181565000Y-133285750D01*
X181565000Y-134226309D01*
X181643158Y-134415000D01*
X181006446Y-134415000D01*
X180978162Y-134264683D01*
X180839090Y-134048559D01*
X180770994Y-134002031D01*
X180913327Y-133859698D01*
X181010000Y-133626309D01*
X181010000Y-133035750D01*
X180851250Y-132877000D01*
X179877000Y-132877000D01*
X179877000Y-132897000D01*
X179623000Y-132897000D01*
X179623000Y-132877000D01*
X178648750Y-132877000D01*
X178490000Y-133035750D01*
X178490000Y-133626309D01*
X178586673Y-133859698D01*
X178727910Y-134000936D01*
X178673559Y-134035910D01*
X178528569Y-134248110D01*
X178494773Y-134415000D01*
X176519434Y-134415000D01*
X176383890Y-134204359D01*
X176171690Y-134059369D01*
X176060277Y-134036807D01*
X176155117Y-134018962D01*
X176371241Y-133879890D01*
X176516231Y-133667690D01*
X176529777Y-133600800D01*
X177234200Y-133600800D01*
X177553741Y-133537239D01*
X177824634Y-133356234D01*
X178603309Y-132577559D01*
X178648750Y-132623000D01*
X179623000Y-132623000D01*
X179623000Y-132603000D01*
X179877000Y-132603000D01*
X179877000Y-132623000D01*
X180851250Y-132623000D01*
X181010000Y-132464250D01*
X181010000Y-131873691D01*
X180968579Y-131773691D01*
X181565000Y-131773691D01*
X181565000Y-132714250D01*
X181723750Y-132873000D01*
X182873000Y-132873000D01*
X182873000Y-131423750D01*
X183127000Y-131423750D01*
X183127000Y-132873000D01*
X184276250Y-132873000D01*
X184435000Y-132714250D01*
X184435000Y-131773691D01*
X184338327Y-131540302D01*
X184159699Y-131361673D01*
X183926310Y-131265000D01*
X183285750Y-131265000D01*
X183127000Y-131423750D01*
X182873000Y-131423750D01*
X182714250Y-131265000D01*
X182073690Y-131265000D01*
X181840301Y-131361673D01*
X181661673Y-131540302D01*
X181565000Y-131773691D01*
X180968579Y-131773691D01*
X180913327Y-131640302D01*
X180734699Y-131461673D01*
X180501310Y-131365000D01*
X180035750Y-131365000D01*
X179877002Y-131523748D01*
X179877002Y-131365000D01*
X179815868Y-131365000D01*
X179990434Y-131190434D01*
X180171440Y-130919540D01*
X180188256Y-130835000D01*
X180384250Y-130835000D01*
X180543000Y-130676250D01*
X180543000Y-130221925D01*
X180547440Y-130200000D01*
X180547440Y-129053000D01*
X180792560Y-129053000D01*
X180792560Y-130200000D01*
X180797000Y-130223597D01*
X180797000Y-130676250D01*
X180955750Y-130835000D01*
X181296309Y-130835000D01*
X181323320Y-130823812D01*
X181440000Y-130847440D01*
X182440000Y-130847440D01*
X182579956Y-130821105D01*
X182710000Y-130847440D01*
X183710000Y-130847440D01*
X183849956Y-130821105D01*
X183980000Y-130847440D01*
X184980000Y-130847440D01*
X185119956Y-130821105D01*
X185250000Y-130847440D01*
X186250000Y-130847440D01*
X186389956Y-130821105D01*
X186520000Y-130847440D01*
X187520000Y-130847440D01*
X187659956Y-130821105D01*
X187790000Y-130847440D01*
X188790000Y-130847440D01*
X189025317Y-130803162D01*
X189241441Y-130664090D01*
X189290000Y-130593022D01*
X189290000Y-136930069D01*
X189197983Y-137392667D01*
X188975555Y-137725555D01*
X188642666Y-137947984D01*
X188111486Y-138053642D01*
X188111481Y-138053644D01*
X187441790Y-138186853D01*
X187324738Y-138235338D01*
X187185849Y-138292867D01*
X186618108Y-138672219D01*
X186520164Y-138770164D01*
X186422219Y-138868108D01*
X186042867Y-139435849D01*
X186009321Y-139516838D01*
X185936853Y-139691790D01*
X185803642Y-140361486D01*
X185803643Y-140500000D01*
X185803642Y-140638514D01*
X185936853Y-141308210D01*
X185961408Y-141367490D01*
X186042867Y-141564151D01*
X186422219Y-142131892D01*
X186520164Y-142229836D01*
X186618108Y-142327781D01*
X187185849Y-142707133D01*
X187297549Y-142753400D01*
X187441790Y-142813147D01*
X188111481Y-142946356D01*
X188111486Y-142946358D01*
X188642666Y-143052016D01*
X188975555Y-143274445D01*
X189197983Y-143607333D01*
X189290000Y-144069931D01*
X189290000Y-149290000D01*
X186210000Y-149290000D01*
X186210000Y-148250000D01*
X186196358Y-148181416D01*
X186196358Y-148111486D01*
X186120238Y-147728804D01*
X186014223Y-147472863D01*
X186014223Y-147472862D01*
X185797451Y-147148438D01*
X185601562Y-146952550D01*
X185601561Y-146952549D01*
X185277138Y-146735776D01*
X185093368Y-146659657D01*
X185021196Y-146629762D01*
X184638513Y-146553642D01*
X184500000Y-146553642D01*
X183978804Y-146629762D01*
X183906632Y-146659657D01*
X183722862Y-146735777D01*
X183398438Y-146952549D01*
X183239501Y-147111487D01*
X183202549Y-147148439D01*
X182985776Y-147472862D01*
X182935581Y-147594046D01*
X182879762Y-147728804D01*
X182803642Y-148111487D01*
X182803642Y-148181416D01*
X182790000Y-148250000D01*
X182790000Y-149290000D01*
X179126000Y-149290000D01*
X179126000Y-149093750D01*
X178967250Y-148935000D01*
X177843000Y-148935000D01*
X177843000Y-148955000D01*
X177589000Y-148955000D01*
X177589000Y-148935000D01*
X176464750Y-148935000D01*
X176306000Y-149093750D01*
X176306000Y-149290000D01*
X171166000Y-149290000D01*
X171166000Y-149093750D01*
X171007250Y-148935000D01*
X169883000Y-148935000D01*
X169883000Y-148955000D01*
X169629000Y-148955000D01*
X169629000Y-148935000D01*
X168504750Y-148935000D01*
X168346000Y-149093750D01*
X168346000Y-149290000D01*
X162405000Y-149290000D01*
X162405000Y-148785750D01*
X162246250Y-148627000D01*
X160147000Y-148627000D01*
X160147000Y-148647000D01*
X159893000Y-148647000D01*
X159893000Y-148627000D01*
X157793750Y-148627000D01*
X157635000Y-148785750D01*
X157635000Y-149290000D01*
X150710000Y-149290000D01*
X150710000Y-147373691D01*
X157635000Y-147373691D01*
X157635000Y-148214250D01*
X157793750Y-148373000D01*
X159893000Y-148373000D01*
X159893000Y-147023750D01*
X160147000Y-147023750D01*
X160147000Y-148373000D01*
X162246250Y-148373000D01*
X162405000Y-148214250D01*
X162405000Y-148031690D01*
X168346000Y-148031690D01*
X168346000Y-148522250D01*
X168504750Y-148681000D01*
X169629000Y-148681000D01*
X169629000Y-147681750D01*
X169883000Y-147681750D01*
X169883000Y-148681000D01*
X171007250Y-148681000D01*
X171166000Y-148522250D01*
X171166000Y-148031690D01*
X176306000Y-148031690D01*
X176306000Y-148522250D01*
X176464750Y-148681000D01*
X177589000Y-148681000D01*
X177589000Y-147681750D01*
X177843000Y-147681750D01*
X177843000Y-148681000D01*
X178967250Y-148681000D01*
X179126000Y-148522250D01*
X179126000Y-148031690D01*
X179029327Y-147798301D01*
X178850698Y-147619673D01*
X178617309Y-147523000D01*
X178001750Y-147523000D01*
X177843000Y-147681750D01*
X177589000Y-147681750D01*
X177430250Y-147523000D01*
X176814691Y-147523000D01*
X176581302Y-147619673D01*
X176402673Y-147798301D01*
X176306000Y-148031690D01*
X171166000Y-148031690D01*
X171069327Y-147798301D01*
X170890698Y-147619673D01*
X170657309Y-147523000D01*
X170041750Y-147523000D01*
X169883000Y-147681750D01*
X169629000Y-147681750D01*
X169470250Y-147523000D01*
X168854691Y-147523000D01*
X168621302Y-147619673D01*
X168442673Y-147798301D01*
X168346000Y-148031690D01*
X162405000Y-148031690D01*
X162405000Y-147373691D01*
X162308327Y-147140302D01*
X162129699Y-146961673D01*
X161896310Y-146865000D01*
X160305750Y-146865000D01*
X160147000Y-147023750D01*
X159893000Y-147023750D01*
X159734250Y-146865000D01*
X158143690Y-146865000D01*
X157910301Y-146961673D01*
X157731673Y-147140302D01*
X157635000Y-147373691D01*
X150710000Y-147373691D01*
X150710000Y-121443750D01*
X150915000Y-121443750D01*
X150915000Y-122134309D01*
X151011673Y-122367698D01*
X151190301Y-122546327D01*
X151423690Y-122643000D01*
X152114250Y-122643000D01*
X152273000Y-122484250D01*
X152273000Y-121285000D01*
X151073750Y-121285000D01*
X150915000Y-121443750D01*
X150710000Y-121443750D01*
X150710000Y-120181691D01*
X150915000Y-120181691D01*
X150915000Y-120872250D01*
X151073750Y-121031000D01*
X152273000Y-121031000D01*
X152273000Y-119831750D01*
X152114250Y-119673000D01*
X151423690Y-119673000D01*
X151190301Y-119769673D01*
X151011673Y-119948302D01*
X150915000Y-120181691D01*
X150710000Y-120181691D01*
X150710000Y-111710000D01*
X157252560Y-111710000D01*
X157252560Y-113372000D01*
X157252560Y-113372000D01*
G37*
X157252560Y-113372000D02*
X157296838Y-113607317D01*
X157435910Y-113823441D01*
X157648110Y-113968431D01*
X157900000Y-114019440D01*
X158154574Y-114019440D01*
X158119080Y-114072560D01*
X157900000Y-114072560D01*
X157664683Y-114116838D01*
X157448559Y-114255910D01*
X157303569Y-114468110D01*
X157252560Y-114720000D01*
X157252560Y-116420000D01*
X157296838Y-116655317D01*
X157435910Y-116871441D01*
X157648110Y-117016431D01*
X157809533Y-117049120D01*
X157673569Y-117248110D01*
X157622560Y-117500000D01*
X157622560Y-117665000D01*
X157598000Y-117665000D01*
X157278460Y-117728560D01*
X157007566Y-117909566D01*
X155217939Y-119699193D01*
X154940000Y-119643907D01*
X154371715Y-119756946D01*
X153889946Y-120078853D01*
X153860597Y-120122777D01*
X153788327Y-119948302D01*
X153609699Y-119769673D01*
X153376310Y-119673000D01*
X152685750Y-119673000D01*
X152527000Y-119831750D01*
X152527000Y-121031000D01*
X152547000Y-121031000D01*
X152547000Y-121285000D01*
X152527000Y-121285000D01*
X152527000Y-122484250D01*
X152685750Y-122643000D01*
X153255001Y-122643000D01*
X153255001Y-128109546D01*
X153104788Y-128047172D01*
X152712931Y-128046830D01*
X152350771Y-128196471D01*
X152073445Y-128473314D01*
X151923172Y-128835212D01*
X151922830Y-129227069D01*
X152072471Y-129589229D01*
X152349314Y-129866555D01*
X152711212Y-130016828D01*
X153103069Y-130017170D01*
X153255001Y-129954393D01*
X153255001Y-133008001D01*
X153318562Y-133327542D01*
X153412989Y-133468862D01*
X153499567Y-133598435D01*
X156763133Y-136862001D01*
X156725996Y-136862001D01*
X156435157Y-136919853D01*
X156334784Y-136986920D01*
X156240830Y-136986838D01*
X155897054Y-137128883D01*
X155633805Y-137391673D01*
X155491159Y-137735201D01*
X155490835Y-138107167D01*
X155632880Y-138450943D01*
X155895670Y-138714192D01*
X156239198Y-138856838D01*
X156390749Y-138856970D01*
X156432883Y-138958943D01*
X156695673Y-139222192D01*
X157039201Y-139364838D01*
X157086077Y-139364879D01*
X159228599Y-141507401D01*
X159475160Y-141672148D01*
X159523414Y-141681746D01*
X159766000Y-141730000D01*
X168996000Y-141730000D01*
X168996000Y-143010560D01*
X168981000Y-143010560D01*
X168745683Y-143054838D01*
X168529559Y-143193910D01*
X168384569Y-143406110D01*
X168333560Y-143658000D01*
X168333560Y-144958000D01*
X168377838Y-145193317D01*
X168516910Y-145409441D01*
X168729110Y-145554431D01*
X168981000Y-145605440D01*
X170531000Y-145605440D01*
X170766317Y-145561162D01*
X170982441Y-145422090D01*
X171127431Y-145209890D01*
X171156164Y-145068000D01*
X176314258Y-145068000D01*
X176337838Y-145193317D01*
X176476910Y-145409441D01*
X176689110Y-145554431D01*
X176941000Y-145605440D01*
X178491000Y-145605440D01*
X178726317Y-145561162D01*
X178942441Y-145422090D01*
X179087431Y-145209890D01*
X179116164Y-145068000D01*
X181677800Y-145068000D01*
X181968639Y-145010148D01*
X182215201Y-144845401D01*
X182809762Y-144250840D01*
X183682400Y-144250840D01*
X183917717Y-144206562D01*
X184133841Y-144067490D01*
X184278831Y-143855290D01*
X184329840Y-143603400D01*
X184329840Y-142103400D01*
X184285562Y-141868083D01*
X184146490Y-141651959D01*
X183934290Y-141506969D01*
X183921203Y-141504319D01*
X184133841Y-141367490D01*
X184278831Y-141155290D01*
X184329840Y-140903400D01*
X184329840Y-139403400D01*
X184285562Y-139168083D01*
X184146490Y-138951959D01*
X183934290Y-138806969D01*
X183682400Y-138755960D01*
X182382400Y-138755960D01*
X182147083Y-138800238D01*
X181930959Y-138939310D01*
X181785969Y-139151510D01*
X181763407Y-139262923D01*
X181745562Y-139168083D01*
X181606490Y-138951959D01*
X181394290Y-138806969D01*
X181142400Y-138755960D01*
X179842400Y-138755960D01*
X179607083Y-138800238D01*
X179390959Y-138939310D01*
X179245969Y-139151510D01*
X179212173Y-139318400D01*
X177549270Y-139318400D01*
X176004800Y-137773930D01*
X176004800Y-136587246D01*
X176155117Y-136558962D01*
X176371241Y-136419890D01*
X176516231Y-136207690D01*
X176541076Y-136085000D01*
X178493554Y-136085000D01*
X178521838Y-136235317D01*
X178660910Y-136451441D01*
X178873110Y-136596431D01*
X179125000Y-136647440D01*
X180375000Y-136647440D01*
X180610317Y-136603162D01*
X180826441Y-136464090D01*
X180971431Y-136251890D01*
X181005227Y-136085000D01*
X181552560Y-136085000D01*
X181552560Y-137100000D01*
X181596838Y-137335317D01*
X181735910Y-137551441D01*
X181948110Y-137696431D01*
X182200000Y-137747440D01*
X183800000Y-137747440D01*
X184035317Y-137703162D01*
X184251441Y-137564090D01*
X184396431Y-137351890D01*
X184447440Y-137100000D01*
X184447440Y-134900000D01*
X184403162Y-134664683D01*
X184297518Y-134500507D01*
X184338327Y-134459698D01*
X184435000Y-134226309D01*
X184435000Y-133285750D01*
X184276250Y-133127000D01*
X183127000Y-133127000D01*
X183127000Y-133147000D01*
X182873000Y-133147000D01*
X182873000Y-133127000D01*
X181723750Y-133127000D01*
X181565000Y-133285750D01*
X181565000Y-134226309D01*
X181643158Y-134415000D01*
X181006446Y-134415000D01*
X180978162Y-134264683D01*
X180839090Y-134048559D01*
X180770994Y-134002031D01*
X180913327Y-133859698D01*
X181010000Y-133626309D01*
X181010000Y-133035750D01*
X180851250Y-132877000D01*
X179877000Y-132877000D01*
X179877000Y-132897000D01*
X179623000Y-132897000D01*
X179623000Y-132877000D01*
X178648750Y-132877000D01*
X178490000Y-133035750D01*
X178490000Y-133626309D01*
X178586673Y-133859698D01*
X178727910Y-134000936D01*
X178673559Y-134035910D01*
X178528569Y-134248110D01*
X178494773Y-134415000D01*
X176519434Y-134415000D01*
X176383890Y-134204359D01*
X176171690Y-134059369D01*
X176060277Y-134036807D01*
X176155117Y-134018962D01*
X176371241Y-133879890D01*
X176516231Y-133667690D01*
X176529777Y-133600800D01*
X177234200Y-133600800D01*
X177553741Y-133537239D01*
X177824634Y-133356234D01*
X178603309Y-132577559D01*
X178648750Y-132623000D01*
X179623000Y-132623000D01*
X179623000Y-132603000D01*
X179877000Y-132603000D01*
X179877000Y-132623000D01*
X180851250Y-132623000D01*
X181010000Y-132464250D01*
X181010000Y-131873691D01*
X180968579Y-131773691D01*
X181565000Y-131773691D01*
X181565000Y-132714250D01*
X181723750Y-132873000D01*
X182873000Y-132873000D01*
X182873000Y-131423750D01*
X183127000Y-131423750D01*
X183127000Y-132873000D01*
X184276250Y-132873000D01*
X184435000Y-132714250D01*
X184435000Y-131773691D01*
X184338327Y-131540302D01*
X184159699Y-131361673D01*
X183926310Y-131265000D01*
X183285750Y-131265000D01*
X183127000Y-131423750D01*
X182873000Y-131423750D01*
X182714250Y-131265000D01*
X182073690Y-131265000D01*
X181840301Y-131361673D01*
X181661673Y-131540302D01*
X181565000Y-131773691D01*
X180968579Y-131773691D01*
X180913327Y-131640302D01*
X180734699Y-131461673D01*
X180501310Y-131365000D01*
X180035750Y-131365000D01*
X179877002Y-131523748D01*
X179877002Y-131365000D01*
X179815868Y-131365000D01*
X179990434Y-131190434D01*
X180171440Y-130919540D01*
X180188256Y-130835000D01*
X180384250Y-130835000D01*
X180543000Y-130676250D01*
X180543000Y-130221925D01*
X180547440Y-130200000D01*
X180547440Y-129053000D01*
X180792560Y-129053000D01*
X180792560Y-130200000D01*
X180797000Y-130223597D01*
X180797000Y-130676250D01*
X180955750Y-130835000D01*
X181296309Y-130835000D01*
X181323320Y-130823812D01*
X181440000Y-130847440D01*
X182440000Y-130847440D01*
X182579956Y-130821105D01*
X182710000Y-130847440D01*
X183710000Y-130847440D01*
X183849956Y-130821105D01*
X183980000Y-130847440D01*
X184980000Y-130847440D01*
X185119956Y-130821105D01*
X185250000Y-130847440D01*
X186250000Y-130847440D01*
X186389956Y-130821105D01*
X186520000Y-130847440D01*
X187520000Y-130847440D01*
X187659956Y-130821105D01*
X187790000Y-130847440D01*
X188790000Y-130847440D01*
X189025317Y-130803162D01*
X189241441Y-130664090D01*
X189290000Y-130593022D01*
X189290000Y-136930069D01*
X189197983Y-137392667D01*
X188975555Y-137725555D01*
X188642666Y-137947984D01*
X188111486Y-138053642D01*
X188111481Y-138053644D01*
X187441790Y-138186853D01*
X187324738Y-138235338D01*
X187185849Y-138292867D01*
X186618108Y-138672219D01*
X186520164Y-138770164D01*
X186422219Y-138868108D01*
X186042867Y-139435849D01*
X186009321Y-139516838D01*
X185936853Y-139691790D01*
X185803642Y-140361486D01*
X185803643Y-140500000D01*
X185803642Y-140638514D01*
X185936853Y-141308210D01*
X185961408Y-141367490D01*
X186042867Y-141564151D01*
X186422219Y-142131892D01*
X186520164Y-142229836D01*
X186618108Y-142327781D01*
X187185849Y-142707133D01*
X187297549Y-142753400D01*
X187441790Y-142813147D01*
X188111481Y-142946356D01*
X188111486Y-142946358D01*
X188642666Y-143052016D01*
X188975555Y-143274445D01*
X189197983Y-143607333D01*
X189290000Y-144069931D01*
X189290000Y-149290000D01*
X186210000Y-149290000D01*
X186210000Y-148250000D01*
X186196358Y-148181416D01*
X186196358Y-148111486D01*
X186120238Y-147728804D01*
X186014223Y-147472863D01*
X186014223Y-147472862D01*
X185797451Y-147148438D01*
X185601562Y-146952550D01*
X185601561Y-146952549D01*
X185277138Y-146735776D01*
X185093368Y-146659657D01*
X185021196Y-146629762D01*
X184638513Y-146553642D01*
X184500000Y-146553642D01*
X183978804Y-146629762D01*
X183906632Y-146659657D01*
X183722862Y-146735777D01*
X183398438Y-146952549D01*
X183239501Y-147111487D01*
X183202549Y-147148439D01*
X182985776Y-147472862D01*
X182935581Y-147594046D01*
X182879762Y-147728804D01*
X182803642Y-148111487D01*
X182803642Y-148181416D01*
X182790000Y-148250000D01*
X182790000Y-149290000D01*
X179126000Y-149290000D01*
X179126000Y-149093750D01*
X178967250Y-148935000D01*
X177843000Y-148935000D01*
X177843000Y-148955000D01*
X177589000Y-148955000D01*
X177589000Y-148935000D01*
X176464750Y-148935000D01*
X176306000Y-149093750D01*
X176306000Y-149290000D01*
X171166000Y-149290000D01*
X171166000Y-149093750D01*
X171007250Y-148935000D01*
X169883000Y-148935000D01*
X169883000Y-148955000D01*
X169629000Y-148955000D01*
X169629000Y-148935000D01*
X168504750Y-148935000D01*
X168346000Y-149093750D01*
X168346000Y-149290000D01*
X162405000Y-149290000D01*
X162405000Y-148785750D01*
X162246250Y-148627000D01*
X160147000Y-148627000D01*
X160147000Y-148647000D01*
X159893000Y-148647000D01*
X159893000Y-148627000D01*
X157793750Y-148627000D01*
X157635000Y-148785750D01*
X157635000Y-149290000D01*
X150710000Y-149290000D01*
X150710000Y-147373691D01*
X157635000Y-147373691D01*
X157635000Y-148214250D01*
X157793750Y-148373000D01*
X159893000Y-148373000D01*
X159893000Y-147023750D01*
X160147000Y-147023750D01*
X160147000Y-148373000D01*
X162246250Y-148373000D01*
X162405000Y-148214250D01*
X162405000Y-148031690D01*
X168346000Y-148031690D01*
X168346000Y-148522250D01*
X168504750Y-148681000D01*
X169629000Y-148681000D01*
X169629000Y-147681750D01*
X169883000Y-147681750D01*
X169883000Y-148681000D01*
X171007250Y-148681000D01*
X171166000Y-148522250D01*
X171166000Y-148031690D01*
X176306000Y-148031690D01*
X176306000Y-148522250D01*
X176464750Y-148681000D01*
X177589000Y-148681000D01*
X177589000Y-147681750D01*
X177843000Y-147681750D01*
X177843000Y-148681000D01*
X178967250Y-148681000D01*
X179126000Y-148522250D01*
X179126000Y-148031690D01*
X179029327Y-147798301D01*
X178850698Y-147619673D01*
X178617309Y-147523000D01*
X178001750Y-147523000D01*
X177843000Y-147681750D01*
X177589000Y-147681750D01*
X177430250Y-147523000D01*
X176814691Y-147523000D01*
X176581302Y-147619673D01*
X176402673Y-147798301D01*
X176306000Y-148031690D01*
X171166000Y-148031690D01*
X171069327Y-147798301D01*
X170890698Y-147619673D01*
X170657309Y-147523000D01*
X170041750Y-147523000D01*
X169883000Y-147681750D01*
X169629000Y-147681750D01*
X169470250Y-147523000D01*
X168854691Y-147523000D01*
X168621302Y-147619673D01*
X168442673Y-147798301D01*
X168346000Y-148031690D01*
X162405000Y-148031690D01*
X162405000Y-147373691D01*
X162308327Y-147140302D01*
X162129699Y-146961673D01*
X161896310Y-146865000D01*
X160305750Y-146865000D01*
X160147000Y-147023750D01*
X159893000Y-147023750D01*
X159734250Y-146865000D01*
X158143690Y-146865000D01*
X157910301Y-146961673D01*
X157731673Y-147140302D01*
X157635000Y-147373691D01*
X150710000Y-147373691D01*
X150710000Y-121443750D01*
X150915000Y-121443750D01*
X150915000Y-122134309D01*
X151011673Y-122367698D01*
X151190301Y-122546327D01*
X151423690Y-122643000D01*
X152114250Y-122643000D01*
X152273000Y-122484250D01*
X152273000Y-121285000D01*
X151073750Y-121285000D01*
X150915000Y-121443750D01*
X150710000Y-121443750D01*
X150710000Y-120181691D01*
X150915000Y-120181691D01*
X150915000Y-120872250D01*
X151073750Y-121031000D01*
X152273000Y-121031000D01*
X152273000Y-119831750D01*
X152114250Y-119673000D01*
X151423690Y-119673000D01*
X151190301Y-119769673D01*
X151011673Y-119948302D01*
X150915000Y-120181691D01*
X150710000Y-120181691D01*
X150710000Y-111710000D01*
X157252560Y-111710000D01*
X157252560Y-113372000D01*
G36*
X173609000Y-140843000D02*
X173629000Y-140843000D01*
X173629000Y-141097000D01*
X173609000Y-141097000D01*
X173609000Y-142290155D01*
X173838890Y-142411476D01*
X174248924Y-142241645D01*
X174677183Y-141851358D01*
X174744298Y-141708447D01*
X174971946Y-142049147D01*
X175453715Y-142371054D01*
X176022000Y-142484093D01*
X176388408Y-142411210D01*
X176987758Y-143010560D01*
X176941000Y-143010560D01*
X176705683Y-143054838D01*
X176489559Y-143193910D01*
X176344569Y-143406110D01*
X176315836Y-143548000D01*
X171157742Y-143548000D01*
X171134162Y-143422683D01*
X170995090Y-143206559D01*
X170782890Y-143061569D01*
X170531000Y-143010560D01*
X170516000Y-143010560D01*
X170516000Y-142467440D01*
X171792000Y-142467440D01*
X172027317Y-142423162D01*
X172243441Y-142284090D01*
X172388431Y-142071890D01*
X172410301Y-141963893D01*
X172715076Y-142241645D01*
X173125110Y-142411476D01*
X173355000Y-142290155D01*
X173355000Y-141097000D01*
X173335000Y-141097000D01*
X173335000Y-140843000D01*
X173355000Y-140843000D01*
X173355000Y-140823000D01*
X173609000Y-140823000D01*
X173609000Y-140843000D01*
X173609000Y-140843000D01*
G37*
X173609000Y-140843000D02*
X173629000Y-140843000D01*
X173629000Y-141097000D01*
X173609000Y-141097000D01*
X173609000Y-142290155D01*
X173838890Y-142411476D01*
X174248924Y-142241645D01*
X174677183Y-141851358D01*
X174744298Y-141708447D01*
X174971946Y-142049147D01*
X175453715Y-142371054D01*
X176022000Y-142484093D01*
X176388408Y-142411210D01*
X176987758Y-143010560D01*
X176941000Y-143010560D01*
X176705683Y-143054838D01*
X176489559Y-143193910D01*
X176344569Y-143406110D01*
X176315836Y-143548000D01*
X171157742Y-143548000D01*
X171134162Y-143422683D01*
X170995090Y-143206559D01*
X170782890Y-143061569D01*
X170531000Y-143010560D01*
X170516000Y-143010560D01*
X170516000Y-142467440D01*
X171792000Y-142467440D01*
X172027317Y-142423162D01*
X172243441Y-142284090D01*
X172388431Y-142071890D01*
X172410301Y-141963893D01*
X172715076Y-142241645D01*
X173125110Y-142411476D01*
X173355000Y-142290155D01*
X173355000Y-141097000D01*
X173335000Y-141097000D01*
X173335000Y-140843000D01*
X173355000Y-140843000D01*
X173355000Y-140823000D01*
X173609000Y-140823000D01*
X173609000Y-140843000D01*
G36*
X171116638Y-136191117D02*
X171255710Y-136407241D01*
X171467910Y-136552231D01*
X171719800Y-136603240D01*
X173219800Y-136603240D01*
X173455117Y-136558962D01*
X173671241Y-136419890D01*
X173816231Y-136207690D01*
X173818881Y-136194603D01*
X173955710Y-136407241D01*
X174167910Y-136552231D01*
X174334800Y-136586027D01*
X174334800Y-137990772D01*
X162353344Y-137990772D01*
X162830516Y-137513600D01*
X167309800Y-137513600D01*
X167600639Y-137455748D01*
X167847201Y-137291001D01*
X169072402Y-136065800D01*
X171093058Y-136065800D01*
X171116638Y-136191117D01*
X171116638Y-136191117D01*
G37*
X171116638Y-136191117D02*
X171255710Y-136407241D01*
X171467910Y-136552231D01*
X171719800Y-136603240D01*
X173219800Y-136603240D01*
X173455117Y-136558962D01*
X173671241Y-136419890D01*
X173816231Y-136207690D01*
X173818881Y-136194603D01*
X173955710Y-136407241D01*
X174167910Y-136552231D01*
X174334800Y-136586027D01*
X174334800Y-137990772D01*
X162353344Y-137990772D01*
X162830516Y-137513600D01*
X167309800Y-137513600D01*
X167600639Y-137455748D01*
X167847201Y-137291001D01*
X169072402Y-136065800D01*
X171093058Y-136065800D01*
X171116638Y-136191117D01*
G36*
X166913517Y-124260059D02*
X172882273Y-124260059D01*
X172786372Y-124355960D01*
X171819800Y-124355960D01*
X171584483Y-124400238D01*
X171368359Y-124539310D01*
X171223369Y-124751510D01*
X171206285Y-124835871D01*
X171100259Y-124856961D01*
X170881098Y-125003400D01*
X170829366Y-125037966D01*
X170004356Y-125862976D01*
X169823351Y-126133869D01*
X169759790Y-126453410D01*
X169759790Y-128388390D01*
X169823351Y-128707931D01*
X169909546Y-128836931D01*
X170004356Y-128978824D01*
X170104365Y-129078834D01*
X170239813Y-129169337D01*
X170375259Y-129259839D01*
X170463423Y-129277376D01*
X170431393Y-129438400D01*
X170496857Y-129767508D01*
X170683281Y-130046512D01*
X170962285Y-130232936D01*
X171149800Y-130270235D01*
X171149800Y-131825227D01*
X171123369Y-131863910D01*
X171094636Y-132005800D01*
X170611800Y-132005800D01*
X170320961Y-132063652D01*
X170074399Y-132228399D01*
X166759208Y-135543590D01*
X161892410Y-135543590D01*
X161601571Y-135601442D01*
X161355009Y-135766189D01*
X160388320Y-136732878D01*
X160342833Y-136732838D01*
X159999057Y-136874883D01*
X159735808Y-137137673D01*
X159637439Y-137374571D01*
X158046498Y-135783630D01*
X158198567Y-135783762D01*
X158542343Y-135641717D01*
X158805592Y-135378927D01*
X158826074Y-135329601D01*
X158845883Y-135377543D01*
X159108673Y-135640792D01*
X159452201Y-135783438D01*
X159824167Y-135783762D01*
X160167943Y-135641717D01*
X160431192Y-135378927D01*
X160573838Y-135035399D01*
X160573879Y-134988523D01*
X160631391Y-134931011D01*
X162030402Y-134931010D01*
X162321241Y-134873158D01*
X162567803Y-134708411D01*
X166526401Y-130749813D01*
X166691148Y-130503251D01*
X166749000Y-130212412D01*
X166749000Y-124227334D01*
X166913517Y-124260059D01*
X166913517Y-124260059D01*
G37*
X166913517Y-124260059D02*
X172882273Y-124260059D01*
X172786372Y-124355960D01*
X171819800Y-124355960D01*
X171584483Y-124400238D01*
X171368359Y-124539310D01*
X171223369Y-124751510D01*
X171206285Y-124835871D01*
X171100259Y-124856961D01*
X170881098Y-125003400D01*
X170829366Y-125037966D01*
X170004356Y-125862976D01*
X169823351Y-126133869D01*
X169759790Y-126453410D01*
X169759790Y-128388390D01*
X169823351Y-128707931D01*
X169909546Y-128836931D01*
X170004356Y-128978824D01*
X170104365Y-129078834D01*
X170239813Y-129169337D01*
X170375259Y-129259839D01*
X170463423Y-129277376D01*
X170431393Y-129438400D01*
X170496857Y-129767508D01*
X170683281Y-130046512D01*
X170962285Y-130232936D01*
X171149800Y-130270235D01*
X171149800Y-131825227D01*
X171123369Y-131863910D01*
X171094636Y-132005800D01*
X170611800Y-132005800D01*
X170320961Y-132063652D01*
X170074399Y-132228399D01*
X166759208Y-135543590D01*
X161892410Y-135543590D01*
X161601571Y-135601442D01*
X161355009Y-135766189D01*
X160388320Y-136732878D01*
X160342833Y-136732838D01*
X159999057Y-136874883D01*
X159735808Y-137137673D01*
X159637439Y-137374571D01*
X158046498Y-135783630D01*
X158198567Y-135783762D01*
X158542343Y-135641717D01*
X158805592Y-135378927D01*
X158826074Y-135329601D01*
X158845883Y-135377543D01*
X159108673Y-135640792D01*
X159452201Y-135783438D01*
X159824167Y-135783762D01*
X160167943Y-135641717D01*
X160431192Y-135378927D01*
X160573838Y-135035399D01*
X160573879Y-134988523D01*
X160631391Y-134931011D01*
X162030402Y-134931010D01*
X162321241Y-134873158D01*
X162567803Y-134708411D01*
X166526401Y-130749813D01*
X166691148Y-130503251D01*
X166749000Y-130212412D01*
X166749000Y-124227334D01*
X166913517Y-124260059D01*
G36*
X157666838Y-119735317D02*
X157805910Y-119951441D01*
X158018110Y-120096431D01*
X158270000Y-120147440D01*
X161435001Y-120147440D01*
X161435001Y-131114197D01*
X160947285Y-131601913D01*
X160782538Y-131848475D01*
X160724686Y-132139314D01*
X160724686Y-132630990D01*
X160609162Y-132909201D01*
X160609117Y-132961001D01*
X159140999Y-132961001D01*
X158850160Y-133018853D01*
X158603598Y-133183600D01*
X157873720Y-133913478D01*
X157828233Y-133913438D01*
X157484457Y-134055483D01*
X157221208Y-134318273D01*
X157078562Y-134661801D01*
X157078428Y-134815560D01*
X154925001Y-132662133D01*
X154925001Y-122669110D01*
X154940000Y-122672093D01*
X155508285Y-122559054D01*
X155990054Y-122237147D01*
X156311961Y-121755378D01*
X156425000Y-121187093D01*
X156425000Y-121128907D01*
X156379368Y-120899500D01*
X157647314Y-119631554D01*
X157666838Y-119735317D01*
X157666838Y-119735317D01*
G37*
X157666838Y-119735317D02*
X157805910Y-119951441D01*
X158018110Y-120096431D01*
X158270000Y-120147440D01*
X161435001Y-120147440D01*
X161435001Y-131114197D01*
X160947285Y-131601913D01*
X160782538Y-131848475D01*
X160724686Y-132139314D01*
X160724686Y-132630990D01*
X160609162Y-132909201D01*
X160609117Y-132961001D01*
X159140999Y-132961001D01*
X158850160Y-133018853D01*
X158603598Y-133183600D01*
X157873720Y-133913478D01*
X157828233Y-133913438D01*
X157484457Y-134055483D01*
X157221208Y-134318273D01*
X157078562Y-134661801D01*
X157078428Y-134815560D01*
X154925001Y-132662133D01*
X154925001Y-122669110D01*
X154940000Y-122672093D01*
X155508285Y-122559054D01*
X155990054Y-122237147D01*
X156311961Y-121755378D01*
X156425000Y-121187093D01*
X156425000Y-121128907D01*
X156379368Y-120899500D01*
X157647314Y-119631554D01*
X157666838Y-119735317D01*
G36*
X178329415Y-127910283D02*
X178303569Y-127948110D01*
X178252560Y-128200000D01*
X178252560Y-130200000D01*
X178296838Y-130435317D01*
X178330893Y-130488239D01*
X176888332Y-131930800D01*
X176532430Y-131930800D01*
X176522962Y-131880483D01*
X176383890Y-131664359D01*
X176171690Y-131519369D01*
X175919800Y-131468360D01*
X175109642Y-131468360D01*
X176127201Y-130450801D01*
X176232224Y-130293623D01*
X176537315Y-130232936D01*
X176816319Y-130046512D01*
X177002743Y-129767508D01*
X177068207Y-129438400D01*
X177002743Y-129109292D01*
X176900815Y-128956746D01*
X177004314Y-128732893D01*
X176871967Y-128600900D01*
X176321322Y-128600900D01*
X176208207Y-128578400D01*
X175442800Y-128578400D01*
X175442800Y-128398400D01*
X176208207Y-128398400D01*
X176321322Y-128375900D01*
X176871967Y-128375900D01*
X177004314Y-128243907D01*
X176900815Y-128020054D01*
X177002743Y-127867508D01*
X177068207Y-127538400D01*
X177002743Y-127209292D01*
X176816319Y-126930288D01*
X176537315Y-126743864D01*
X176278786Y-126692439D01*
X176358127Y-126613099D01*
X176454800Y-126379710D01*
X176454800Y-126035668D01*
X178329415Y-127910283D01*
X178329415Y-127910283D01*
G37*
X178329415Y-127910283D02*
X178303569Y-127948110D01*
X178252560Y-128200000D01*
X178252560Y-130200000D01*
X178296838Y-130435317D01*
X178330893Y-130488239D01*
X176888332Y-131930800D01*
X176532430Y-131930800D01*
X176522962Y-131880483D01*
X176383890Y-131664359D01*
X176171690Y-131519369D01*
X175919800Y-131468360D01*
X175109642Y-131468360D01*
X176127201Y-130450801D01*
X176232224Y-130293623D01*
X176537315Y-130232936D01*
X176816319Y-130046512D01*
X177002743Y-129767508D01*
X177068207Y-129438400D01*
X177002743Y-129109292D01*
X176900815Y-128956746D01*
X177004314Y-128732893D01*
X176871967Y-128600900D01*
X176321322Y-128600900D01*
X176208207Y-128578400D01*
X175442800Y-128578400D01*
X175442800Y-128398400D01*
X176208207Y-128398400D01*
X176321322Y-128375900D01*
X176871967Y-128375900D01*
X177004314Y-128243907D01*
X176900815Y-128020054D01*
X177002743Y-127867508D01*
X177068207Y-127538400D01*
X177002743Y-127209292D01*
X176816319Y-126930288D01*
X176537315Y-126743864D01*
X176278786Y-126692439D01*
X176358127Y-126613099D01*
X176454800Y-126379710D01*
X176454800Y-126035668D01*
X178329415Y-127910283D01*
G36*
X177123000Y-118000000D02*
X177131685Y-118046159D01*
X177158965Y-118088553D01*
X177200590Y-118116994D01*
X177250000Y-118127000D01*
X189290000Y-118127000D01*
X189290000Y-127804365D01*
X189254090Y-127748559D01*
X189041890Y-127603569D01*
X188790000Y-127552560D01*
X187790000Y-127552560D01*
X187666453Y-127575807D01*
X187557401Y-127412599D01*
X179140390Y-118995588D01*
X178893828Y-118830841D01*
X178602989Y-118772989D01*
X174345011Y-118772989D01*
X174102425Y-118821243D01*
X174054171Y-118830841D01*
X173807610Y-118995588D01*
X173086408Y-119716790D01*
X172720000Y-119643907D01*
X172151715Y-119756946D01*
X171669946Y-120078853D01*
X171450000Y-120408026D01*
X171230054Y-120078853D01*
X170748285Y-119756946D01*
X170180000Y-119643907D01*
X169611715Y-119756946D01*
X169129946Y-120078853D01*
X168910000Y-120408026D01*
X168690054Y-120078853D01*
X168208285Y-119756946D01*
X167640000Y-119643907D01*
X167071715Y-119756946D01*
X166589946Y-120078853D01*
X166562150Y-120120452D01*
X166553162Y-120072683D01*
X166414090Y-119856559D01*
X166201890Y-119711569D01*
X165950000Y-119660560D01*
X164250000Y-119660560D01*
X164014683Y-119704838D01*
X163798559Y-119843910D01*
X163653569Y-120056110D01*
X163602560Y-120308000D01*
X163602560Y-122008000D01*
X163646838Y-122243317D01*
X163785910Y-122459441D01*
X163998110Y-122604431D01*
X164250000Y-122655440D01*
X164340000Y-122655440D01*
X164340000Y-130150200D01*
X163574000Y-130916200D01*
X163574000Y-115354998D01*
X163516148Y-115064159D01*
X163351401Y-114817597D01*
X162391402Y-113857598D01*
X162157928Y-113701596D01*
X162485183Y-113403358D01*
X162731486Y-112878892D01*
X162610819Y-112649000D01*
X161417000Y-112649000D01*
X161417000Y-112669000D01*
X161163000Y-112669000D01*
X161163000Y-112649000D01*
X161143000Y-112649000D01*
X161143000Y-112395000D01*
X161163000Y-112395000D01*
X161163000Y-112375000D01*
X161417000Y-112375000D01*
X161417000Y-112395000D01*
X162610819Y-112395000D01*
X162731486Y-112165108D01*
X162517755Y-111710000D01*
X177123000Y-111710000D01*
X177123000Y-118000000D01*
X177123000Y-118000000D01*
G37*
X177123000Y-118000000D02*
X177131685Y-118046159D01*
X177158965Y-118088553D01*
X177200590Y-118116994D01*
X177250000Y-118127000D01*
X189290000Y-118127000D01*
X189290000Y-127804365D01*
X189254090Y-127748559D01*
X189041890Y-127603569D01*
X188790000Y-127552560D01*
X187790000Y-127552560D01*
X187666453Y-127575807D01*
X187557401Y-127412599D01*
X179140390Y-118995588D01*
X178893828Y-118830841D01*
X178602989Y-118772989D01*
X174345011Y-118772989D01*
X174102425Y-118821243D01*
X174054171Y-118830841D01*
X173807610Y-118995588D01*
X173086408Y-119716790D01*
X172720000Y-119643907D01*
X172151715Y-119756946D01*
X171669946Y-120078853D01*
X171450000Y-120408026D01*
X171230054Y-120078853D01*
X170748285Y-119756946D01*
X170180000Y-119643907D01*
X169611715Y-119756946D01*
X169129946Y-120078853D01*
X168910000Y-120408026D01*
X168690054Y-120078853D01*
X168208285Y-119756946D01*
X167640000Y-119643907D01*
X167071715Y-119756946D01*
X166589946Y-120078853D01*
X166562150Y-120120452D01*
X166553162Y-120072683D01*
X166414090Y-119856559D01*
X166201890Y-119711569D01*
X165950000Y-119660560D01*
X164250000Y-119660560D01*
X164014683Y-119704838D01*
X163798559Y-119843910D01*
X163653569Y-120056110D01*
X163602560Y-120308000D01*
X163602560Y-122008000D01*
X163646838Y-122243317D01*
X163785910Y-122459441D01*
X163998110Y-122604431D01*
X164250000Y-122655440D01*
X164340000Y-122655440D01*
X164340000Y-130150200D01*
X163574000Y-130916200D01*
X163574000Y-115354998D01*
X163516148Y-115064159D01*
X163351401Y-114817597D01*
X162391402Y-113857598D01*
X162157928Y-113701596D01*
X162485183Y-113403358D01*
X162731486Y-112878892D01*
X162610819Y-112649000D01*
X161417000Y-112649000D01*
X161417000Y-112669000D01*
X161163000Y-112669000D01*
X161163000Y-112649000D01*
X161143000Y-112649000D01*
X161143000Y-112395000D01*
X161163000Y-112395000D01*
X161163000Y-112375000D01*
X161417000Y-112375000D01*
X161417000Y-112395000D01*
X162610819Y-112395000D01*
X162731486Y-112165108D01*
X162517755Y-111710000D01*
X177123000Y-111710000D01*
X177123000Y-118000000D01*
G36*
X175196800Y-125501400D02*
X175216800Y-125501400D01*
X175216800Y-125755400D01*
X175196800Y-125755400D01*
X175196800Y-125775400D01*
X174942800Y-125775400D01*
X174942800Y-125755400D01*
X174922800Y-125755400D01*
X174922800Y-125501400D01*
X174942800Y-125501400D01*
X174942800Y-125481400D01*
X175196800Y-125481400D01*
X175196800Y-125501400D01*
X175196800Y-125501400D01*
G37*
X175196800Y-125501400D02*
X175216800Y-125501400D01*
X175216800Y-125755400D01*
X175196800Y-125755400D01*
X175196800Y-125775400D01*
X174942800Y-125775400D01*
X174942800Y-125755400D01*
X174922800Y-125755400D01*
X174922800Y-125501400D01*
X174942800Y-125501400D01*
X174942800Y-125481400D01*
X175196800Y-125481400D01*
X175196800Y-125501400D01*
M02*
