G04 #@! TF.FileFunction,Legend,Bot*
%FSLAX46Y46*%
G04 Gerber Fmt 4.6, Leading zero omitted, Abs format (unit mm)*
G04 Created by KiCad (PCBNEW 4.0.6-e0-6349~53~ubuntu16.04.1) date Sun Jul  2 13:03:49 2017*
%MOMM*%
%LPD*%
G01*
G04 APERTURE LIST*
%ADD10C,0.100000*%
%ADD11C,0.120000*%
%ADD12C,0.150000*%
G04 APERTURE END LIST*
D10*
D11*
X152058000Y-132326000D02*
X152058000Y-131326000D01*
X153758000Y-131326000D02*
X153758000Y-132326000D01*
X166282000Y-133342000D02*
X166282000Y-132342000D01*
X167982000Y-132342000D02*
X167982000Y-133342000D01*
X161710000Y-144625000D02*
X161710000Y-143625000D01*
X163410000Y-143625000D02*
X163410000Y-144625000D01*
X159630000Y-122012000D02*
X159630000Y-120812000D01*
X157870000Y-120812000D02*
X157870000Y-122012000D01*
X156455000Y-143555000D02*
X156455000Y-142355000D01*
X154695000Y-142355000D02*
X154695000Y-143555000D01*
X152155000Y-142355000D02*
X152155000Y-143555000D01*
X153915000Y-143555000D02*
X153915000Y-142355000D01*
X160410000Y-120812000D02*
X160410000Y-122012000D01*
X162170000Y-122012000D02*
X162170000Y-120812000D01*
X160965000Y-145135000D02*
X160035000Y-145135000D01*
X157805000Y-145135000D02*
X158735000Y-145135000D01*
X157805000Y-145135000D02*
X157805000Y-141975000D01*
X160965000Y-145135000D02*
X160965000Y-143675000D01*
D12*
X156395000Y-135510000D02*
X156395000Y-135285000D01*
X163645000Y-135510000D02*
X163645000Y-135185000D01*
X163645000Y-128260000D02*
X163645000Y-128585000D01*
X156395000Y-128260000D02*
X156395000Y-128585000D01*
X156395000Y-135510000D02*
X156720000Y-135510000D01*
X156395000Y-128260000D02*
X156720000Y-128260000D01*
X163645000Y-128260000D02*
X163320000Y-128260000D01*
X163645000Y-135510000D02*
X163320000Y-135510000D01*
X156395000Y-135285000D02*
X154970000Y-135285000D01*
X153074666Y-135433143D02*
X153122285Y-135480762D01*
X153265142Y-135528381D01*
X153360380Y-135528381D01*
X153503238Y-135480762D01*
X153598476Y-135385524D01*
X153646095Y-135290286D01*
X153693714Y-135099810D01*
X153693714Y-134956952D01*
X153646095Y-134766476D01*
X153598476Y-134671238D01*
X153503238Y-134576000D01*
X153360380Y-134528381D01*
X153265142Y-134528381D01*
X153122285Y-134576000D01*
X153074666Y-134623619D01*
X152122285Y-135528381D02*
X152693714Y-135528381D01*
X152408000Y-135528381D02*
X152408000Y-134528381D01*
X152503238Y-134671238D01*
X152598476Y-134766476D01*
X152693714Y-134814095D01*
X167298666Y-136449143D02*
X167346285Y-136496762D01*
X167489142Y-136544381D01*
X167584380Y-136544381D01*
X167727238Y-136496762D01*
X167822476Y-136401524D01*
X167870095Y-136306286D01*
X167917714Y-136115810D01*
X167917714Y-135972952D01*
X167870095Y-135782476D01*
X167822476Y-135687238D01*
X167727238Y-135592000D01*
X167584380Y-135544381D01*
X167489142Y-135544381D01*
X167346285Y-135592000D01*
X167298666Y-135639619D01*
X166917714Y-135639619D02*
X166870095Y-135592000D01*
X166774857Y-135544381D01*
X166536761Y-135544381D01*
X166441523Y-135592000D01*
X166393904Y-135639619D01*
X166346285Y-135734857D01*
X166346285Y-135830095D01*
X166393904Y-135972952D01*
X166965333Y-136544381D01*
X166346285Y-136544381D01*
X162726666Y-147677143D02*
X162774285Y-147724762D01*
X162917142Y-147772381D01*
X163012380Y-147772381D01*
X163155238Y-147724762D01*
X163250476Y-147629524D01*
X163298095Y-147534286D01*
X163345714Y-147343810D01*
X163345714Y-147200952D01*
X163298095Y-147010476D01*
X163250476Y-146915238D01*
X163155238Y-146820000D01*
X163012380Y-146772381D01*
X162917142Y-146772381D01*
X162774285Y-146820000D01*
X162726666Y-146867619D01*
X161869523Y-146772381D02*
X162060000Y-146772381D01*
X162155238Y-146820000D01*
X162202857Y-146867619D01*
X162298095Y-147010476D01*
X162345714Y-147200952D01*
X162345714Y-147581905D01*
X162298095Y-147677143D01*
X162250476Y-147724762D01*
X162155238Y-147772381D01*
X161964761Y-147772381D01*
X161869523Y-147724762D01*
X161821904Y-147677143D01*
X161774285Y-147581905D01*
X161774285Y-147343810D01*
X161821904Y-147248571D01*
X161869523Y-147200952D01*
X161964761Y-147153333D01*
X162155238Y-147153333D01*
X162250476Y-147200952D01*
X162298095Y-147248571D01*
X162345714Y-147343810D01*
X158916666Y-124912381D02*
X159250000Y-124436190D01*
X159488095Y-124912381D02*
X159488095Y-123912381D01*
X159107142Y-123912381D01*
X159011904Y-123960000D01*
X158964285Y-124007619D01*
X158916666Y-124102857D01*
X158916666Y-124245714D01*
X158964285Y-124340952D01*
X159011904Y-124388571D01*
X159107142Y-124436190D01*
X159488095Y-124436190D01*
X157964285Y-124912381D02*
X158535714Y-124912381D01*
X158250000Y-124912381D02*
X158250000Y-123912381D01*
X158345238Y-124055238D01*
X158440476Y-124150476D01*
X158535714Y-124198095D01*
X155741666Y-146756381D02*
X156075000Y-146280190D01*
X156313095Y-146756381D02*
X156313095Y-145756381D01*
X155932142Y-145756381D01*
X155836904Y-145804000D01*
X155789285Y-145851619D01*
X155741666Y-145946857D01*
X155741666Y-146089714D01*
X155789285Y-146184952D01*
X155836904Y-146232571D01*
X155932142Y-146280190D01*
X156313095Y-146280190D01*
X155360714Y-145851619D02*
X155313095Y-145804000D01*
X155217857Y-145756381D01*
X154979761Y-145756381D01*
X154884523Y-145804000D01*
X154836904Y-145851619D01*
X154789285Y-145946857D01*
X154789285Y-146042095D01*
X154836904Y-146184952D01*
X155408333Y-146756381D01*
X154789285Y-146756381D01*
X153201666Y-146756381D02*
X153535000Y-146280190D01*
X153773095Y-146756381D02*
X153773095Y-145756381D01*
X153392142Y-145756381D01*
X153296904Y-145804000D01*
X153249285Y-145851619D01*
X153201666Y-145946857D01*
X153201666Y-146089714D01*
X153249285Y-146184952D01*
X153296904Y-146232571D01*
X153392142Y-146280190D01*
X153773095Y-146280190D01*
X152868333Y-145756381D02*
X152249285Y-145756381D01*
X152582619Y-146137333D01*
X152439761Y-146137333D01*
X152344523Y-146184952D01*
X152296904Y-146232571D01*
X152249285Y-146327810D01*
X152249285Y-146565905D01*
X152296904Y-146661143D01*
X152344523Y-146708762D01*
X152439761Y-146756381D01*
X152725476Y-146756381D01*
X152820714Y-146708762D01*
X152868333Y-146661143D01*
X161456666Y-124912381D02*
X161790000Y-124436190D01*
X162028095Y-124912381D02*
X162028095Y-123912381D01*
X161647142Y-123912381D01*
X161551904Y-123960000D01*
X161504285Y-124007619D01*
X161456666Y-124102857D01*
X161456666Y-124245714D01*
X161504285Y-124340952D01*
X161551904Y-124388571D01*
X161647142Y-124436190D01*
X162028095Y-124436190D01*
X160599523Y-123912381D02*
X160790000Y-123912381D01*
X160885238Y-123960000D01*
X160932857Y-124007619D01*
X161028095Y-124150476D01*
X161075714Y-124340952D01*
X161075714Y-124721905D01*
X161028095Y-124817143D01*
X160980476Y-124864762D01*
X160885238Y-124912381D01*
X160694761Y-124912381D01*
X160599523Y-124864762D01*
X160551904Y-124817143D01*
X160504285Y-124721905D01*
X160504285Y-124483810D01*
X160551904Y-124388571D01*
X160599523Y-124340952D01*
X160694761Y-124293333D01*
X160885238Y-124293333D01*
X160980476Y-124340952D01*
X161028095Y-124388571D01*
X161075714Y-124483810D01*
X160273905Y-147534381D02*
X160273905Y-148343905D01*
X160226286Y-148439143D01*
X160178667Y-148486762D01*
X160083429Y-148534381D01*
X159892952Y-148534381D01*
X159797714Y-148486762D01*
X159750095Y-148439143D01*
X159702476Y-148343905D01*
X159702476Y-147534381D01*
X159273905Y-147629619D02*
X159226286Y-147582000D01*
X159131048Y-147534381D01*
X158892952Y-147534381D01*
X158797714Y-147582000D01*
X158750095Y-147629619D01*
X158702476Y-147724857D01*
X158702476Y-147820095D01*
X158750095Y-147962952D01*
X159321524Y-148534381D01*
X158702476Y-148534381D01*
X160781905Y-137387381D02*
X160781905Y-138196905D01*
X160734286Y-138292143D01*
X160686667Y-138339762D01*
X160591429Y-138387381D01*
X160400952Y-138387381D01*
X160305714Y-138339762D01*
X160258095Y-138292143D01*
X160210476Y-138196905D01*
X160210476Y-137387381D01*
X159305714Y-137720714D02*
X159305714Y-138387381D01*
X159543810Y-137339762D02*
X159781905Y-138054048D01*
X159162857Y-138054048D01*
M02*
