G04 #@! TF.FileFunction,Legend,Top*
%FSLAX46Y46*%
G04 Gerber Fmt 4.6, Leading zero omitted, Abs format (unit mm)*
G04 Created by KiCad (PCBNEW 4.0.6-e0-6349~53~ubuntu16.04.1) date Sun Jul  2 13:03:49 2017*
%MOMM*%
%LPD*%
G01*
G04 APERTURE LIST*
%ADD10C,0.100000*%
%ADD11C,0.120000*%
%ADD12C,0.150000*%
G04 APERTURE END LIST*
D10*
X151765239Y-146442190D02*
X151765239Y-145942190D01*
X151955715Y-145942190D01*
X152003334Y-145966000D01*
X152027143Y-145989810D01*
X152050953Y-146037429D01*
X152050953Y-146108857D01*
X152027143Y-146156476D01*
X152003334Y-146180286D01*
X151955715Y-146204095D01*
X151765239Y-146204095D01*
X152336667Y-146442190D02*
X152289048Y-146418381D01*
X152265239Y-146370762D01*
X152265239Y-145942190D01*
X152741429Y-146442190D02*
X152741429Y-146180286D01*
X152717620Y-146132667D01*
X152670001Y-146108857D01*
X152574763Y-146108857D01*
X152527144Y-146132667D01*
X152741429Y-146418381D02*
X152693810Y-146442190D01*
X152574763Y-146442190D01*
X152527144Y-146418381D01*
X152503334Y-146370762D01*
X152503334Y-146323143D01*
X152527144Y-146275524D01*
X152574763Y-146251714D01*
X152693810Y-146251714D01*
X152741429Y-146227905D01*
X152908096Y-146108857D02*
X153098572Y-146108857D01*
X152979525Y-145942190D02*
X152979525Y-146370762D01*
X153003334Y-146418381D01*
X153050953Y-146442190D01*
X153098572Y-146442190D01*
X153265239Y-146442190D02*
X153265239Y-146108857D01*
X153265239Y-145942190D02*
X153241429Y-145966000D01*
X153265239Y-145989810D01*
X153289048Y-145966000D01*
X153265239Y-145942190D01*
X153265239Y-145989810D01*
X153503334Y-146108857D02*
X153503334Y-146442190D01*
X153503334Y-146156476D02*
X153527143Y-146132667D01*
X153574762Y-146108857D01*
X153646191Y-146108857D01*
X153693810Y-146132667D01*
X153717619Y-146180286D01*
X153717619Y-146442190D01*
X154146191Y-146418381D02*
X154098572Y-146442190D01*
X154003334Y-146442190D01*
X153955715Y-146418381D01*
X153931905Y-146370762D01*
X153931905Y-146180286D01*
X153955715Y-146132667D01*
X154003334Y-146108857D01*
X154098572Y-146108857D01*
X154146191Y-146132667D01*
X154170000Y-146180286D01*
X154170000Y-146227905D01*
X153931905Y-146275524D01*
X154693809Y-146108857D02*
X154884285Y-146108857D01*
X154765238Y-146442190D02*
X154765238Y-146013619D01*
X154789047Y-145966000D01*
X154836666Y-145942190D01*
X154884285Y-145942190D01*
X155265237Y-146108857D02*
X155265237Y-146442190D01*
X155050952Y-146108857D02*
X155050952Y-146370762D01*
X155074761Y-146418381D01*
X155122380Y-146442190D01*
X155193809Y-146442190D01*
X155241428Y-146418381D01*
X155265237Y-146394571D01*
X155074761Y-145942190D02*
X155098571Y-145966000D01*
X155074761Y-145989810D01*
X155050952Y-145966000D01*
X155074761Y-145942190D01*
X155074761Y-145989810D01*
X155265237Y-145942190D02*
X155289047Y-145966000D01*
X155265237Y-145989810D01*
X155241428Y-145966000D01*
X155265237Y-145942190D01*
X155265237Y-145989810D01*
X155503333Y-146442190D02*
X155503333Y-146108857D01*
X155503333Y-146204095D02*
X155527142Y-146156476D01*
X155550952Y-146132667D01*
X155598571Y-146108857D01*
X155646190Y-146108857D01*
X150717620Y-146792190D02*
X150717620Y-147196952D01*
X150741429Y-147244571D01*
X150765239Y-147268381D01*
X150812858Y-147292190D01*
X150908096Y-147292190D01*
X150955715Y-147268381D01*
X150979524Y-147244571D01*
X151003334Y-147196952D01*
X151003334Y-146792190D01*
X151241430Y-146958857D02*
X151241430Y-147292190D01*
X151241430Y-147006476D02*
X151265239Y-146982667D01*
X151312858Y-146958857D01*
X151384287Y-146958857D01*
X151431906Y-146982667D01*
X151455715Y-147030286D01*
X151455715Y-147292190D01*
X151693811Y-147292190D02*
X151693811Y-146958857D01*
X151693811Y-146792190D02*
X151670001Y-146816000D01*
X151693811Y-146839810D01*
X151717620Y-146816000D01*
X151693811Y-146792190D01*
X151693811Y-146839810D01*
X151860477Y-146958857D02*
X152050953Y-146958857D01*
X151931906Y-147292190D02*
X151931906Y-146863619D01*
X151955715Y-146816000D01*
X152003334Y-146792190D01*
X152050953Y-146792190D01*
X152289048Y-147292190D02*
X152241429Y-147268381D01*
X152217620Y-147220762D01*
X152217620Y-146792190D01*
X152693810Y-147292190D02*
X152693810Y-147030286D01*
X152670001Y-146982667D01*
X152622382Y-146958857D01*
X152527144Y-146958857D01*
X152479525Y-146982667D01*
X152693810Y-147268381D02*
X152646191Y-147292190D01*
X152527144Y-147292190D01*
X152479525Y-147268381D01*
X152455715Y-147220762D01*
X152455715Y-147173143D01*
X152479525Y-147125524D01*
X152527144Y-147101714D01*
X152646191Y-147101714D01*
X152693810Y-147077905D01*
X152479525Y-146792190D02*
X152503334Y-146816000D01*
X152479525Y-146839810D01*
X152455715Y-146816000D01*
X152479525Y-146792190D01*
X152479525Y-146839810D01*
X152670001Y-146792190D02*
X152693810Y-146816000D01*
X152670001Y-146839810D01*
X152646191Y-146816000D01*
X152670001Y-146792190D01*
X152670001Y-146839810D01*
X153146191Y-147268381D02*
X153098572Y-147292190D01*
X153003334Y-147292190D01*
X152955715Y-147268381D01*
X152931906Y-147244571D01*
X152908096Y-147196952D01*
X152908096Y-147054095D01*
X152931906Y-147006476D01*
X152955715Y-146982667D01*
X153003334Y-146958857D01*
X153098572Y-146958857D01*
X153146191Y-146982667D01*
X153360477Y-147292190D02*
X153360477Y-146792190D01*
X153574762Y-147292190D02*
X153574762Y-147030286D01*
X153550953Y-146982667D01*
X153503334Y-146958857D01*
X153431905Y-146958857D01*
X153384286Y-146982667D01*
X153360477Y-147006476D01*
X154003334Y-147268381D02*
X153955715Y-147292190D01*
X153860477Y-147292190D01*
X153812858Y-147268381D01*
X153789048Y-147220762D01*
X153789048Y-147030286D01*
X153812858Y-146982667D01*
X153860477Y-146958857D01*
X153955715Y-146958857D01*
X154003334Y-146982667D01*
X154027143Y-147030286D01*
X154027143Y-147077905D01*
X153789048Y-147125524D01*
X154241429Y-146958857D02*
X154241429Y-147292190D01*
X154241429Y-147006476D02*
X154265238Y-146982667D01*
X154312857Y-146958857D01*
X154384286Y-146958857D01*
X154431905Y-146982667D01*
X154455714Y-147030286D01*
X154455714Y-147292190D01*
X154622381Y-146958857D02*
X154812857Y-146958857D01*
X154693810Y-146792190D02*
X154693810Y-147220762D01*
X154717619Y-147268381D01*
X154765238Y-147292190D01*
X154812857Y-147292190D01*
X155193809Y-147292190D02*
X155193809Y-147030286D01*
X155170000Y-146982667D01*
X155122381Y-146958857D01*
X155027143Y-146958857D01*
X154979524Y-146982667D01*
X155193809Y-147268381D02*
X155146190Y-147292190D01*
X155027143Y-147292190D01*
X154979524Y-147268381D01*
X154955714Y-147220762D01*
X154955714Y-147173143D01*
X154979524Y-147125524D01*
X155027143Y-147101714D01*
X155146190Y-147101714D01*
X155193809Y-147077905D01*
X155408095Y-147268381D02*
X155455714Y-147292190D01*
X155550952Y-147292190D01*
X155598571Y-147268381D01*
X155622381Y-147220762D01*
X155622381Y-147196952D01*
X155598571Y-147149333D01*
X155550952Y-147125524D01*
X155479524Y-147125524D01*
X155431905Y-147101714D01*
X155408095Y-147054095D01*
X155408095Y-147030286D01*
X155431905Y-146982667D01*
X155479524Y-146958857D01*
X155550952Y-146958857D01*
X155598571Y-146982667D01*
X155765238Y-146958857D02*
X155955714Y-146958857D01*
X155836667Y-146792190D02*
X155836667Y-147220762D01*
X155860476Y-147268381D01*
X155908095Y-147292190D01*
X155955714Y-147292190D01*
X156312857Y-147268381D02*
X156265238Y-147292190D01*
X156170000Y-147292190D01*
X156122381Y-147268381D01*
X156098571Y-147220762D01*
X156098571Y-147030286D01*
X156122381Y-146982667D01*
X156170000Y-146958857D01*
X156265238Y-146958857D01*
X156312857Y-146982667D01*
X156336666Y-147030286D01*
X156336666Y-147077905D01*
X156098571Y-147125524D01*
X156550952Y-147292190D02*
X156550952Y-146958857D01*
X156550952Y-147054095D02*
X156574761Y-147006476D01*
X156598571Y-146982667D01*
X156646190Y-146958857D01*
X156693809Y-146958857D01*
X152717620Y-147642190D02*
X152884287Y-148142190D01*
X153050953Y-147642190D01*
X153574762Y-147689810D02*
X153598572Y-147666000D01*
X153646191Y-147642190D01*
X153765238Y-147642190D01*
X153812857Y-147666000D01*
X153836667Y-147689810D01*
X153860476Y-147737429D01*
X153860476Y-147785048D01*
X153836667Y-147856476D01*
X153550953Y-148142190D01*
X153860476Y-148142190D01*
X154074762Y-148094571D02*
X154098571Y-148118381D01*
X154074762Y-148142190D01*
X154050952Y-148118381D01*
X154074762Y-148094571D01*
X154074762Y-148142190D01*
X154408095Y-147642190D02*
X154455714Y-147642190D01*
X154503333Y-147666000D01*
X154527142Y-147689810D01*
X154550952Y-147737429D01*
X154574761Y-147832667D01*
X154574761Y-147951714D01*
X154550952Y-148046952D01*
X154527142Y-148094571D01*
X154503333Y-148118381D01*
X154455714Y-148142190D01*
X154408095Y-148142190D01*
X154360476Y-148118381D01*
X154336666Y-148094571D01*
X154312857Y-148046952D01*
X154289047Y-147951714D01*
X154289047Y-147832667D01*
X154312857Y-147737429D01*
X154336666Y-147689810D01*
X154360476Y-147666000D01*
X154408095Y-147642190D01*
X173101047Y-142498000D02*
X173053428Y-142474190D01*
X172982000Y-142474190D01*
X172910571Y-142498000D01*
X172862952Y-142545619D01*
X172839143Y-142593238D01*
X172815333Y-142688476D01*
X172815333Y-142759905D01*
X172839143Y-142855143D01*
X172862952Y-142902762D01*
X172910571Y-142950381D01*
X172982000Y-142974190D01*
X173029619Y-142974190D01*
X173101047Y-142950381D01*
X173124857Y-142926571D01*
X173124857Y-142759905D01*
X173029619Y-142759905D01*
X173339143Y-142974190D02*
X173339143Y-142474190D01*
X173624857Y-142974190D01*
X173624857Y-142474190D01*
X173862953Y-142974190D02*
X173862953Y-142474190D01*
X173982000Y-142474190D01*
X174053429Y-142498000D01*
X174101048Y-142545619D01*
X174124857Y-142593238D01*
X174148667Y-142688476D01*
X174148667Y-142759905D01*
X174124857Y-142855143D01*
X174101048Y-142902762D01*
X174053429Y-142950381D01*
X173982000Y-142974190D01*
X173862953Y-142974190D01*
X170561048Y-142950381D02*
X170632477Y-142974190D01*
X170751524Y-142974190D01*
X170799143Y-142950381D01*
X170822953Y-142926571D01*
X170846762Y-142878952D01*
X170846762Y-142831333D01*
X170822953Y-142783714D01*
X170799143Y-142759905D01*
X170751524Y-142736095D01*
X170656286Y-142712286D01*
X170608667Y-142688476D01*
X170584858Y-142664667D01*
X170561048Y-142617048D01*
X170561048Y-142569429D01*
X170584858Y-142521810D01*
X170608667Y-142498000D01*
X170656286Y-142474190D01*
X170775334Y-142474190D01*
X170846762Y-142498000D01*
X171322952Y-142974190D02*
X171037238Y-142974190D01*
X171180095Y-142974190D02*
X171180095Y-142474190D01*
X171132476Y-142545619D01*
X171084857Y-142593238D01*
X171037238Y-142617048D01*
X175641048Y-142950381D02*
X175712477Y-142974190D01*
X175831524Y-142974190D01*
X175879143Y-142950381D01*
X175902953Y-142926571D01*
X175926762Y-142878952D01*
X175926762Y-142831333D01*
X175902953Y-142783714D01*
X175879143Y-142759905D01*
X175831524Y-142736095D01*
X175736286Y-142712286D01*
X175688667Y-142688476D01*
X175664858Y-142664667D01*
X175641048Y-142617048D01*
X175641048Y-142569429D01*
X175664858Y-142521810D01*
X175688667Y-142498000D01*
X175736286Y-142474190D01*
X175855334Y-142474190D01*
X175926762Y-142498000D01*
X176117238Y-142521810D02*
X176141048Y-142498000D01*
X176188667Y-142474190D01*
X176307714Y-142474190D01*
X176355333Y-142498000D01*
X176379143Y-142521810D01*
X176402952Y-142569429D01*
X176402952Y-142617048D01*
X176379143Y-142688476D01*
X176093429Y-142974190D01*
X176402952Y-142974190D01*
X163004524Y-113700714D02*
X163385476Y-113700714D01*
X156654524Y-113700714D02*
X157035476Y-113700714D01*
X156845000Y-113891190D02*
X156845000Y-113510238D01*
X163230762Y-115796190D02*
X162992667Y-115796190D01*
X162992667Y-115296190D01*
X163397429Y-115796190D02*
X163397429Y-115296190D01*
X163516476Y-115296190D01*
X163587905Y-115320000D01*
X163635524Y-115367619D01*
X163659333Y-115415238D01*
X163683143Y-115510476D01*
X163683143Y-115581905D01*
X163659333Y-115677143D01*
X163635524Y-115724762D01*
X163587905Y-115772381D01*
X163516476Y-115796190D01*
X163397429Y-115796190D01*
X164183143Y-115796190D02*
X164016476Y-115558095D01*
X163897429Y-115796190D02*
X163897429Y-115296190D01*
X164087905Y-115296190D01*
X164135524Y-115320000D01*
X164159333Y-115343810D01*
X164183143Y-115391429D01*
X164183143Y-115462857D01*
X164159333Y-115510476D01*
X164135524Y-115534286D01*
X164087905Y-115558095D01*
X163897429Y-115558095D01*
X163254572Y-112494190D02*
X163016477Y-112494190D01*
X163016477Y-111994190D01*
X163421239Y-112232286D02*
X163587905Y-112232286D01*
X163659334Y-112494190D02*
X163421239Y-112494190D01*
X163421239Y-111994190D01*
X163659334Y-111994190D01*
X163873620Y-112494190D02*
X163873620Y-111994190D01*
X163992667Y-111994190D01*
X164064096Y-112018000D01*
X164111715Y-112065619D01*
X164135524Y-112113238D01*
X164159334Y-112208476D01*
X164159334Y-112279905D01*
X164135524Y-112375143D01*
X164111715Y-112422762D01*
X164064096Y-112470381D01*
X163992667Y-112494190D01*
X163873620Y-112494190D01*
X174617143Y-122757381D02*
X174688572Y-122781190D01*
X174807619Y-122781190D01*
X174855238Y-122757381D01*
X174879048Y-122733571D01*
X174902857Y-122685952D01*
X174902857Y-122638333D01*
X174879048Y-122590714D01*
X174855238Y-122566905D01*
X174807619Y-122543095D01*
X174712381Y-122519286D01*
X174664762Y-122495476D01*
X174640953Y-122471667D01*
X174617143Y-122424048D01*
X174617143Y-122376429D01*
X174640953Y-122328810D01*
X174664762Y-122305000D01*
X174712381Y-122281190D01*
X174831429Y-122281190D01*
X174902857Y-122305000D01*
X175402857Y-122733571D02*
X175379047Y-122757381D01*
X175307619Y-122781190D01*
X175260000Y-122781190D01*
X175188571Y-122757381D01*
X175140952Y-122709762D01*
X175117143Y-122662143D01*
X175093333Y-122566905D01*
X175093333Y-122495476D01*
X175117143Y-122400238D01*
X175140952Y-122352619D01*
X175188571Y-122305000D01*
X175260000Y-122281190D01*
X175307619Y-122281190D01*
X175379047Y-122305000D01*
X175402857Y-122328810D01*
X175617143Y-122781190D02*
X175617143Y-122281190D01*
X175902857Y-122781190D02*
X175688571Y-122495476D01*
X175902857Y-122281190D02*
X175617143Y-122566905D01*
X171934286Y-122781190D02*
X171934286Y-122281190D01*
X172100952Y-122638333D01*
X172267619Y-122281190D01*
X172267619Y-122781190D01*
X172505715Y-122781190D02*
X172505715Y-122281190D01*
X172720000Y-122757381D02*
X172791429Y-122781190D01*
X172910476Y-122781190D01*
X172958095Y-122757381D01*
X172981905Y-122733571D01*
X173005714Y-122685952D01*
X173005714Y-122638333D01*
X172981905Y-122590714D01*
X172958095Y-122566905D01*
X172910476Y-122543095D01*
X172815238Y-122519286D01*
X172767619Y-122495476D01*
X172743810Y-122471667D01*
X172720000Y-122424048D01*
X172720000Y-122376429D01*
X172743810Y-122328810D01*
X172767619Y-122305000D01*
X172815238Y-122281190D01*
X172934286Y-122281190D01*
X173005714Y-122305000D01*
X173315238Y-122281190D02*
X173410476Y-122281190D01*
X173458095Y-122305000D01*
X173505714Y-122352619D01*
X173529523Y-122447857D01*
X173529523Y-122614524D01*
X173505714Y-122709762D01*
X173458095Y-122757381D01*
X173410476Y-122781190D01*
X173315238Y-122781190D01*
X173267619Y-122757381D01*
X173220000Y-122709762D01*
X173196190Y-122614524D01*
X173196190Y-122447857D01*
X173220000Y-122352619D01*
X173267619Y-122305000D01*
X173315238Y-122281190D01*
X169394286Y-122781190D02*
X169394286Y-122281190D01*
X169560952Y-122638333D01*
X169727619Y-122281190D01*
X169727619Y-122781190D01*
X170060953Y-122281190D02*
X170156191Y-122281190D01*
X170203810Y-122305000D01*
X170251429Y-122352619D01*
X170275238Y-122447857D01*
X170275238Y-122614524D01*
X170251429Y-122709762D01*
X170203810Y-122757381D01*
X170156191Y-122781190D01*
X170060953Y-122781190D01*
X170013334Y-122757381D01*
X169965715Y-122709762D01*
X169941905Y-122614524D01*
X169941905Y-122447857D01*
X169965715Y-122352619D01*
X170013334Y-122305000D01*
X170060953Y-122281190D01*
X170465715Y-122757381D02*
X170537144Y-122781190D01*
X170656191Y-122781190D01*
X170703810Y-122757381D01*
X170727620Y-122733571D01*
X170751429Y-122685952D01*
X170751429Y-122638333D01*
X170727620Y-122590714D01*
X170703810Y-122566905D01*
X170656191Y-122543095D01*
X170560953Y-122519286D01*
X170513334Y-122495476D01*
X170489525Y-122471667D01*
X170465715Y-122424048D01*
X170465715Y-122376429D01*
X170489525Y-122328810D01*
X170513334Y-122305000D01*
X170560953Y-122281190D01*
X170680001Y-122281190D01*
X170751429Y-122305000D01*
X170965715Y-122781190D02*
X170965715Y-122281190D01*
X166913810Y-122781190D02*
X166747143Y-122543095D01*
X166628096Y-122781190D02*
X166628096Y-122281190D01*
X166818572Y-122281190D01*
X166866191Y-122305000D01*
X166890000Y-122328810D01*
X166913810Y-122376429D01*
X166913810Y-122447857D01*
X166890000Y-122495476D01*
X166866191Y-122519286D01*
X166818572Y-122543095D01*
X166628096Y-122543095D01*
X167128096Y-122519286D02*
X167294762Y-122519286D01*
X167366191Y-122781190D02*
X167128096Y-122781190D01*
X167128096Y-122281190D01*
X167366191Y-122281190D01*
X167556667Y-122757381D02*
X167628096Y-122781190D01*
X167747143Y-122781190D01*
X167794762Y-122757381D01*
X167818572Y-122733571D01*
X167842381Y-122685952D01*
X167842381Y-122638333D01*
X167818572Y-122590714D01*
X167794762Y-122566905D01*
X167747143Y-122543095D01*
X167651905Y-122519286D01*
X167604286Y-122495476D01*
X167580477Y-122471667D01*
X167556667Y-122424048D01*
X167556667Y-122376429D01*
X167580477Y-122328810D01*
X167604286Y-122305000D01*
X167651905Y-122281190D01*
X167770953Y-122281190D01*
X167842381Y-122305000D01*
X168056667Y-122519286D02*
X168223333Y-122519286D01*
X168294762Y-122781190D02*
X168056667Y-122781190D01*
X168056667Y-122281190D01*
X168294762Y-122281190D01*
X168437619Y-122281190D02*
X168723333Y-122281190D01*
X168580476Y-122781190D02*
X168580476Y-122281190D01*
X164719048Y-122281190D02*
X165004762Y-122281190D01*
X164861905Y-122781190D02*
X164861905Y-122281190D01*
X165123810Y-122281190D02*
X165457143Y-122781190D01*
X165457143Y-122281190D02*
X165123810Y-122781190D01*
X154273334Y-122281190D02*
X154440001Y-122781190D01*
X154606667Y-122281190D01*
X155059048Y-122733571D02*
X155035238Y-122757381D01*
X154963810Y-122781190D01*
X154916191Y-122781190D01*
X154844762Y-122757381D01*
X154797143Y-122709762D01*
X154773334Y-122662143D01*
X154749524Y-122566905D01*
X154749524Y-122495476D01*
X154773334Y-122400238D01*
X154797143Y-122352619D01*
X154844762Y-122305000D01*
X154916191Y-122281190D01*
X154963810Y-122281190D01*
X155035238Y-122305000D01*
X155059048Y-122328810D01*
X155559048Y-122733571D02*
X155535238Y-122757381D01*
X155463810Y-122781190D01*
X155416191Y-122781190D01*
X155344762Y-122757381D01*
X155297143Y-122709762D01*
X155273334Y-122662143D01*
X155249524Y-122566905D01*
X155249524Y-122495476D01*
X155273334Y-122400238D01*
X155297143Y-122352619D01*
X155344762Y-122305000D01*
X155416191Y-122281190D01*
X155463810Y-122281190D01*
X155535238Y-122305000D01*
X155559048Y-122328810D01*
X152019047Y-122305000D02*
X151971428Y-122281190D01*
X151900000Y-122281190D01*
X151828571Y-122305000D01*
X151780952Y-122352619D01*
X151757143Y-122400238D01*
X151733333Y-122495476D01*
X151733333Y-122566905D01*
X151757143Y-122662143D01*
X151780952Y-122709762D01*
X151828571Y-122757381D01*
X151900000Y-122781190D01*
X151947619Y-122781190D01*
X152019047Y-122757381D01*
X152042857Y-122733571D01*
X152042857Y-122566905D01*
X151947619Y-122566905D01*
X152257143Y-122781190D02*
X152257143Y-122281190D01*
X152542857Y-122781190D01*
X152542857Y-122281190D01*
X152780953Y-122781190D02*
X152780953Y-122281190D01*
X152900000Y-122281190D01*
X152971429Y-122305000D01*
X153019048Y-122352619D01*
X153042857Y-122400238D01*
X153066667Y-122495476D01*
X153066667Y-122566905D01*
X153042857Y-122662143D01*
X153019048Y-122709762D01*
X152971429Y-122757381D01*
X152900000Y-122781190D01*
X152780953Y-122781190D01*
D11*
X172212000Y-142300000D02*
X177352000Y-142300000D01*
X177352000Y-142300000D02*
X177352000Y-139640000D01*
X177352000Y-139640000D02*
X172212000Y-139640000D01*
X172212000Y-139640000D02*
X172212000Y-142300000D01*
X170942000Y-142300000D02*
X169612000Y-142300000D01*
X169612000Y-142300000D02*
X169612000Y-140970000D01*
D12*
X162770000Y-123000000D02*
X166270000Y-123000000D01*
X166270000Y-123000000D02*
X168020000Y-124750000D01*
X168020000Y-124750000D02*
X168020000Y-144000000D01*
X162770000Y-147000000D02*
X162770000Y-144000000D01*
X157270000Y-144000000D02*
X157270000Y-147000000D01*
X152020000Y-144000000D02*
X152020000Y-123000000D01*
X162770000Y-123000000D02*
X162770000Y-120000000D01*
X157270000Y-120000000D02*
X157270000Y-123000000D01*
X167992669Y-127463731D02*
G75*
G03X152020000Y-127500000I-7972669J-6036269D01*
G01*
X152047331Y-139536269D02*
G75*
G03X168020000Y-139500000I7972669J6036269D01*
G01*
X157270000Y-120000000D02*
X162770000Y-120000000D01*
X152020000Y-123000000D02*
X157270000Y-123000000D01*
X152020000Y-144000000D02*
X157270000Y-144000000D01*
X157270000Y-147000000D02*
X162770000Y-147000000D01*
X162770000Y-144000000D02*
X168020000Y-144000000D01*
D11*
X160020000Y-113852000D02*
X162620000Y-113852000D01*
X162620000Y-113852000D02*
X162620000Y-111192000D01*
X162620000Y-111192000D02*
X160020000Y-111192000D01*
X160020000Y-111192000D02*
X160020000Y-113852000D01*
X158750000Y-113852000D02*
X157420000Y-113852000D01*
X157420000Y-113852000D02*
X157420000Y-112522000D01*
X173219800Y-131885800D02*
X174419800Y-131885800D01*
X174419800Y-133645800D02*
X173219800Y-133645800D01*
X174319800Y-124778400D02*
X173319800Y-124778400D01*
X173319800Y-126478400D02*
X174319800Y-126478400D01*
D12*
X174774800Y-126838400D02*
X172724800Y-126838400D01*
X175479800Y-130138400D02*
X172724800Y-130138400D01*
D11*
X173219800Y-134425800D02*
X174419800Y-134425800D01*
X174419800Y-136185800D02*
X173219800Y-136185800D01*
X184730000Y-135330000D02*
X184120000Y-135940000D01*
X184730000Y-132770000D02*
X184120000Y-132770000D01*
X181290000Y-135310000D02*
X181880000Y-135910000D01*
X181290000Y-132770000D02*
X181880000Y-132770000D01*
X184730000Y-135330000D02*
X184730000Y-132790000D01*
X181290000Y-132770000D02*
X181290000Y-135310000D01*
X178900000Y-133500000D02*
X178900000Y-134500000D01*
X180600000Y-134500000D02*
X180600000Y-133500000D01*
X182152400Y-142103400D02*
X182152400Y-140903400D01*
X183912400Y-140903400D02*
X183912400Y-142103400D01*
X179612400Y-142103400D02*
X179612400Y-140903400D01*
X181372400Y-140903400D02*
X181372400Y-142103400D01*
X160020000Y-116900000D02*
X162620000Y-116900000D01*
X162620000Y-116900000D02*
X162620000Y-114240000D01*
X162620000Y-114240000D02*
X160020000Y-114240000D01*
X160020000Y-114240000D02*
X160020000Y-116900000D01*
X158750000Y-116900000D02*
X157420000Y-116900000D01*
X157420000Y-116900000D02*
X157420000Y-115570000D01*
X151070000Y-119818000D02*
X153670000Y-119818000D01*
X153670000Y-119818000D02*
X153670000Y-117198000D01*
X153670000Y-117198000D02*
X151070000Y-117198000D01*
X151070000Y-117198000D02*
X151070000Y-119818000D01*
X152020000Y-117198000D02*
X152780000Y-117198000D01*
X152780000Y-117198000D02*
X152780000Y-111198000D01*
X152780000Y-111198000D02*
X152020000Y-111198000D01*
X152020000Y-111198000D02*
X152020000Y-117198000D01*
X152020000Y-120248000D02*
X152020000Y-119818000D01*
X152780000Y-120248000D02*
X152780000Y-119818000D01*
X152140000Y-117198000D02*
X152140000Y-111198000D01*
X152260000Y-117198000D02*
X152260000Y-111198000D01*
X152380000Y-117198000D02*
X152380000Y-111198000D01*
X152500000Y-117198000D02*
X152500000Y-111198000D01*
X152620000Y-117198000D02*
X152620000Y-111198000D01*
X152740000Y-117198000D02*
X152740000Y-111198000D01*
X153670000Y-119818000D02*
X156270000Y-119818000D01*
X156270000Y-119818000D02*
X156270000Y-117198000D01*
X156270000Y-117198000D02*
X153670000Y-117198000D01*
X153670000Y-117198000D02*
X153670000Y-119818000D01*
X154560000Y-117198000D02*
X155320000Y-117198000D01*
X155320000Y-117198000D02*
X155320000Y-111198000D01*
X155320000Y-111198000D02*
X154560000Y-111198000D01*
X154560000Y-111198000D02*
X154560000Y-117198000D01*
X154560000Y-120248000D02*
X154560000Y-119818000D01*
X155320000Y-120248000D02*
X155320000Y-119818000D01*
X152400000Y-122428000D02*
X151130000Y-122428000D01*
X151130000Y-122428000D02*
X151130000Y-121158000D01*
X163770000Y-119818000D02*
X166370000Y-119818000D01*
X166370000Y-119818000D02*
X166370000Y-117198000D01*
X166370000Y-117198000D02*
X163770000Y-117198000D01*
X163770000Y-117198000D02*
X163770000Y-119818000D01*
X164720000Y-117198000D02*
X165480000Y-117198000D01*
X165480000Y-117198000D02*
X165480000Y-111198000D01*
X165480000Y-111198000D02*
X164720000Y-111198000D01*
X164720000Y-111198000D02*
X164720000Y-117198000D01*
X164720000Y-120248000D02*
X164720000Y-119818000D01*
X165480000Y-120248000D02*
X165480000Y-119818000D01*
X164840000Y-117198000D02*
X164840000Y-111198000D01*
X164960000Y-117198000D02*
X164960000Y-111198000D01*
X165080000Y-117198000D02*
X165080000Y-111198000D01*
X165200000Y-117198000D02*
X165200000Y-111198000D01*
X165320000Y-117198000D02*
X165320000Y-111198000D01*
X165440000Y-117198000D02*
X165440000Y-111198000D01*
X166370000Y-119818000D02*
X168910000Y-119818000D01*
X168910000Y-119818000D02*
X168910000Y-117198000D01*
X168910000Y-117198000D02*
X166370000Y-117198000D01*
X166370000Y-117198000D02*
X166370000Y-119818000D01*
X167260000Y-117198000D02*
X168020000Y-117198000D01*
X168020000Y-117198000D02*
X168020000Y-111198000D01*
X168020000Y-111198000D02*
X167260000Y-111198000D01*
X167260000Y-111198000D02*
X167260000Y-117198000D01*
X167260000Y-120248000D02*
X167260000Y-119818000D01*
X168020000Y-120248000D02*
X168020000Y-119818000D01*
X168910000Y-119818000D02*
X171450000Y-119818000D01*
X171450000Y-119818000D02*
X171450000Y-117198000D01*
X171450000Y-117198000D02*
X168910000Y-117198000D01*
X168910000Y-117198000D02*
X168910000Y-119818000D01*
X169800000Y-117198000D02*
X170560000Y-117198000D01*
X170560000Y-117198000D02*
X170560000Y-111198000D01*
X170560000Y-111198000D02*
X169800000Y-111198000D01*
X169800000Y-111198000D02*
X169800000Y-117198000D01*
X169800000Y-120248000D02*
X169800000Y-119818000D01*
X170560000Y-120248000D02*
X170560000Y-119818000D01*
X171450000Y-119818000D02*
X173990000Y-119818000D01*
X173990000Y-119818000D02*
X173990000Y-117198000D01*
X173990000Y-117198000D02*
X171450000Y-117198000D01*
X171450000Y-117198000D02*
X171450000Y-119818000D01*
X172340000Y-117198000D02*
X173100000Y-117198000D01*
X173100000Y-117198000D02*
X173100000Y-111198000D01*
X173100000Y-111198000D02*
X172340000Y-111198000D01*
X172340000Y-111198000D02*
X172340000Y-117198000D01*
X172340000Y-120248000D02*
X172340000Y-119818000D01*
X173100000Y-120248000D02*
X173100000Y-119818000D01*
X173990000Y-119818000D02*
X176590000Y-119818000D01*
X176590000Y-119818000D02*
X176590000Y-117198000D01*
X176590000Y-117198000D02*
X173990000Y-117198000D01*
X173990000Y-117198000D02*
X173990000Y-119818000D01*
X174880000Y-117198000D02*
X175640000Y-117198000D01*
X175640000Y-117198000D02*
X175640000Y-111198000D01*
X175640000Y-111198000D02*
X174880000Y-111198000D01*
X174880000Y-111198000D02*
X174880000Y-117198000D01*
X174880000Y-120248000D02*
X174880000Y-119818000D01*
X175640000Y-120248000D02*
X175640000Y-119818000D01*
X165100000Y-122428000D02*
X163830000Y-122428000D01*
X163830000Y-122428000D02*
X163830000Y-121158000D01*
X176966000Y-143328000D02*
X176966000Y-143358000D01*
X176966000Y-149788000D02*
X176966000Y-149758000D01*
X170506000Y-149788000D02*
X170506000Y-149758000D01*
X170506000Y-143358000D02*
X170506000Y-143328000D01*
X176966000Y-145258000D02*
X176966000Y-147858000D01*
X170506000Y-143328000D02*
X176966000Y-143328000D01*
X170506000Y-145258000D02*
X170506000Y-147858000D01*
X170506000Y-149788000D02*
X176966000Y-149788000D01*
D12*
X177823905Y-141422381D02*
X177823905Y-140422381D01*
X178204858Y-140422381D01*
X178300096Y-140470000D01*
X178347715Y-140517619D01*
X178395334Y-140612857D01*
X178395334Y-140755714D01*
X178347715Y-140850952D01*
X178300096Y-140898571D01*
X178204858Y-140946190D01*
X177823905Y-140946190D01*
X178776286Y-140517619D02*
X178823905Y-140470000D01*
X178919143Y-140422381D01*
X179157239Y-140422381D01*
X179252477Y-140470000D01*
X179300096Y-140517619D01*
X179347715Y-140612857D01*
X179347715Y-140708095D01*
X179300096Y-140850952D01*
X178728667Y-141422381D01*
X179347715Y-141422381D01*
X163806286Y-144928571D02*
X163949143Y-144976190D01*
X163996762Y-145023810D01*
X164044381Y-145119048D01*
X164044381Y-145261905D01*
X163996762Y-145357143D01*
X163949143Y-145404762D01*
X163853905Y-145452381D01*
X163472952Y-145452381D01*
X163472952Y-144452381D01*
X163806286Y-144452381D01*
X163901524Y-144500000D01*
X163949143Y-144547619D01*
X163996762Y-144642857D01*
X163996762Y-144738095D01*
X163949143Y-144833333D01*
X163901524Y-144880952D01*
X163806286Y-144928571D01*
X163472952Y-144928571D01*
X164330095Y-144452381D02*
X164901524Y-144452381D01*
X164615809Y-145452381D02*
X164615809Y-144452381D01*
X165758667Y-145452381D02*
X165187238Y-145452381D01*
X165472952Y-145452381D02*
X165472952Y-144452381D01*
X165377714Y-144595238D01*
X165282476Y-144690476D01*
X165187238Y-144738095D01*
X157099048Y-148661429D02*
X157860953Y-148661429D01*
X157551429Y-118880952D02*
X157551429Y-118119047D01*
X157932381Y-118499999D02*
X157170476Y-118499999D01*
X155876667Y-111847381D02*
X155876667Y-112561667D01*
X155829047Y-112704524D01*
X155733809Y-112799762D01*
X155590952Y-112847381D01*
X155495714Y-112847381D01*
X156305238Y-111942619D02*
X156352857Y-111895000D01*
X156448095Y-111847381D01*
X156686191Y-111847381D01*
X156781429Y-111895000D01*
X156829048Y-111942619D01*
X156876667Y-112037857D01*
X156876667Y-112133095D01*
X156829048Y-112275952D01*
X156257619Y-112847381D01*
X156876667Y-112847381D01*
X170303134Y-133218181D02*
X169969800Y-132741990D01*
X169731705Y-133218181D02*
X169731705Y-132218181D01*
X170112658Y-132218181D01*
X170207896Y-132265800D01*
X170255515Y-132313419D01*
X170303134Y-132408657D01*
X170303134Y-132551514D01*
X170255515Y-132646752D01*
X170207896Y-132694371D01*
X170112658Y-132741990D01*
X169731705Y-132741990D01*
X170874562Y-132646752D02*
X170779324Y-132599133D01*
X170731705Y-132551514D01*
X170684086Y-132456276D01*
X170684086Y-132408657D01*
X170731705Y-132313419D01*
X170779324Y-132265800D01*
X170874562Y-132218181D01*
X171065039Y-132218181D01*
X171160277Y-132265800D01*
X171207896Y-132313419D01*
X171255515Y-132408657D01*
X171255515Y-132456276D01*
X171207896Y-132551514D01*
X171160277Y-132599133D01*
X171065039Y-132646752D01*
X170874562Y-132646752D01*
X170779324Y-132694371D01*
X170731705Y-132741990D01*
X170684086Y-132837229D01*
X170684086Y-133027705D01*
X170731705Y-133122943D01*
X170779324Y-133170562D01*
X170874562Y-133218181D01*
X171065039Y-133218181D01*
X171160277Y-133170562D01*
X171207896Y-133122943D01*
X171255515Y-133027705D01*
X171255515Y-132837229D01*
X171207896Y-132741990D01*
X171160277Y-132694371D01*
X171065039Y-132646752D01*
X170445134Y-125985543D02*
X170397515Y-126033162D01*
X170254658Y-126080781D01*
X170159420Y-126080781D01*
X170016562Y-126033162D01*
X169921324Y-125937924D01*
X169873705Y-125842686D01*
X169826086Y-125652210D01*
X169826086Y-125509352D01*
X169873705Y-125318876D01*
X169921324Y-125223638D01*
X170016562Y-125128400D01*
X170159420Y-125080781D01*
X170254658Y-125080781D01*
X170397515Y-125128400D01*
X170445134Y-125176019D01*
X170778467Y-125080781D02*
X171445134Y-125080781D01*
X171016562Y-126080781D01*
X172897895Y-130414781D02*
X172897895Y-131224305D01*
X172945514Y-131319543D01*
X172993133Y-131367162D01*
X173088371Y-131414781D01*
X173278848Y-131414781D01*
X173374086Y-131367162D01*
X173421705Y-131319543D01*
X173469324Y-131224305D01*
X173469324Y-130414781D01*
X173850276Y-130414781D02*
X174469324Y-130414781D01*
X174135990Y-130795733D01*
X174278848Y-130795733D01*
X174374086Y-130843352D01*
X174421705Y-130890971D01*
X174469324Y-130986210D01*
X174469324Y-131224305D01*
X174421705Y-131319543D01*
X174374086Y-131367162D01*
X174278848Y-131414781D01*
X173993133Y-131414781D01*
X173897895Y-131367162D01*
X173850276Y-131319543D01*
X170303134Y-135758181D02*
X169969800Y-135281990D01*
X169731705Y-135758181D02*
X169731705Y-134758181D01*
X170112658Y-134758181D01*
X170207896Y-134805800D01*
X170255515Y-134853419D01*
X170303134Y-134948657D01*
X170303134Y-135091514D01*
X170255515Y-135186752D01*
X170207896Y-135234371D01*
X170112658Y-135281990D01*
X169731705Y-135281990D01*
X170636467Y-134758181D02*
X171303134Y-134758181D01*
X170874562Y-135758181D01*
X183038095Y-121052381D02*
X183038095Y-121861905D01*
X183085714Y-121957143D01*
X183133333Y-122004762D01*
X183228571Y-122052381D01*
X183419048Y-122052381D01*
X183514286Y-122004762D01*
X183561905Y-121957143D01*
X183609524Y-121861905D01*
X183609524Y-121052381D01*
X184609524Y-122052381D02*
X184038095Y-122052381D01*
X184323809Y-122052381D02*
X184323809Y-121052381D01*
X184228571Y-121195238D01*
X184133333Y-121290476D01*
X184038095Y-121338095D01*
X182833334Y-138607143D02*
X182785715Y-138654762D01*
X182642858Y-138702381D01*
X182547620Y-138702381D01*
X182404762Y-138654762D01*
X182309524Y-138559524D01*
X182261905Y-138464286D01*
X182214286Y-138273810D01*
X182214286Y-138130952D01*
X182261905Y-137940476D01*
X182309524Y-137845238D01*
X182404762Y-137750000D01*
X182547620Y-137702381D01*
X182642858Y-137702381D01*
X182785715Y-137750000D01*
X182833334Y-137797619D01*
X183166667Y-137702381D02*
X183785715Y-137702381D01*
X183452381Y-138083333D01*
X183595239Y-138083333D01*
X183690477Y-138130952D01*
X183738096Y-138178571D01*
X183785715Y-138273810D01*
X183785715Y-138511905D01*
X183738096Y-138607143D01*
X183690477Y-138654762D01*
X183595239Y-138702381D01*
X183309524Y-138702381D01*
X183214286Y-138654762D01*
X183166667Y-138607143D01*
X184471429Y-137100952D02*
X184471429Y-136339047D01*
X184852381Y-136719999D02*
X184090476Y-136719999D01*
X179583334Y-137607143D02*
X179535715Y-137654762D01*
X179392858Y-137702381D01*
X179297620Y-137702381D01*
X179154762Y-137654762D01*
X179059524Y-137559524D01*
X179011905Y-137464286D01*
X178964286Y-137273810D01*
X178964286Y-137130952D01*
X179011905Y-136940476D01*
X179059524Y-136845238D01*
X179154762Y-136750000D01*
X179297620Y-136702381D01*
X179392858Y-136702381D01*
X179535715Y-136750000D01*
X179583334Y-136797619D01*
X180440477Y-137035714D02*
X180440477Y-137702381D01*
X180202381Y-136654762D02*
X179964286Y-137369048D01*
X180583334Y-137369048D01*
X182865734Y-145257781D02*
X182532400Y-144781590D01*
X182294305Y-145257781D02*
X182294305Y-144257781D01*
X182675258Y-144257781D01*
X182770496Y-144305400D01*
X182818115Y-144353019D01*
X182865734Y-144448257D01*
X182865734Y-144591114D01*
X182818115Y-144686352D01*
X182770496Y-144733971D01*
X182675258Y-144781590D01*
X182294305Y-144781590D01*
X183722877Y-144591114D02*
X183722877Y-145257781D01*
X183484781Y-144210162D02*
X183246686Y-144924448D01*
X183865734Y-144924448D01*
X180325734Y-145257781D02*
X179992400Y-144781590D01*
X179754305Y-145257781D02*
X179754305Y-144257781D01*
X180135258Y-144257781D01*
X180230496Y-144305400D01*
X180278115Y-144353019D01*
X180325734Y-144448257D01*
X180325734Y-144591114D01*
X180278115Y-144686352D01*
X180230496Y-144733971D01*
X180135258Y-144781590D01*
X179754305Y-144781590D01*
X181230496Y-144257781D02*
X180754305Y-144257781D01*
X180706686Y-144733971D01*
X180754305Y-144686352D01*
X180849543Y-144638733D01*
X181087639Y-144638733D01*
X181182877Y-144686352D01*
X181230496Y-144733971D01*
X181278115Y-144829210D01*
X181278115Y-145067305D01*
X181230496Y-145162543D01*
X181182877Y-145210162D01*
X181087639Y-145257781D01*
X180849543Y-145257781D01*
X180754305Y-145210162D01*
X180706686Y-145162543D01*
X155471905Y-116022381D02*
X155471905Y-115022381D01*
X155852858Y-115022381D01*
X155948096Y-115070000D01*
X155995715Y-115117619D01*
X156043334Y-115212857D01*
X156043334Y-115355714D01*
X155995715Y-115450952D01*
X155948096Y-115498571D01*
X155852858Y-115546190D01*
X155471905Y-115546190D01*
X156376667Y-115022381D02*
X156995715Y-115022381D01*
X156662381Y-115403333D01*
X156805239Y-115403333D01*
X156900477Y-115450952D01*
X156948096Y-115498571D01*
X156995715Y-115593810D01*
X156995715Y-115831905D01*
X156948096Y-115927143D01*
X156900477Y-115974762D01*
X156805239Y-116022381D01*
X156519524Y-116022381D01*
X156424286Y-115974762D01*
X156376667Y-115927143D01*
X153336667Y-115530381D02*
X153336667Y-116244667D01*
X153289047Y-116387524D01*
X153193809Y-116482762D01*
X153050952Y-116530381D01*
X152955714Y-116530381D01*
X154336667Y-116530381D02*
X153765238Y-116530381D01*
X154050952Y-116530381D02*
X154050952Y-115530381D01*
X153955714Y-115673238D01*
X153860476Y-115768476D01*
X153765238Y-115816095D01*
X166036667Y-115530381D02*
X166036667Y-116244667D01*
X165989047Y-116387524D01*
X165893809Y-116482762D01*
X165750952Y-116530381D01*
X165655714Y-116530381D01*
X166417619Y-115530381D02*
X167036667Y-115530381D01*
X166703333Y-115911333D01*
X166846191Y-115911333D01*
X166941429Y-115958952D01*
X166989048Y-116006571D01*
X167036667Y-116101810D01*
X167036667Y-116339905D01*
X166989048Y-116435143D01*
X166941429Y-116482762D01*
X166846191Y-116530381D01*
X166560476Y-116530381D01*
X166465238Y-116482762D01*
X166417619Y-116435143D01*
X172402667Y-146962762D02*
X172545524Y-147010381D01*
X172783620Y-147010381D01*
X172878858Y-146962762D01*
X172926477Y-146915143D01*
X172974096Y-146819905D01*
X172974096Y-146724667D01*
X172926477Y-146629429D01*
X172878858Y-146581810D01*
X172783620Y-146534190D01*
X172593143Y-146486571D01*
X172497905Y-146438952D01*
X172450286Y-146391333D01*
X172402667Y-146296095D01*
X172402667Y-146200857D01*
X172450286Y-146105619D01*
X172497905Y-146058000D01*
X172593143Y-146010381D01*
X172831239Y-146010381D01*
X172974096Y-146058000D01*
X173307429Y-146010381D02*
X173545524Y-147010381D01*
X173736001Y-146296095D01*
X173926477Y-147010381D01*
X174164572Y-146010381D01*
X175069334Y-147010381D02*
X174497905Y-147010381D01*
X174783619Y-147010381D02*
X174783619Y-146010381D01*
X174688381Y-146153238D01*
X174593143Y-146248476D01*
X174497905Y-146296095D01*
M02*
