M48
;DRILL file {KiCad 4.0.6-e0-6349~53~ubuntu16.04.1} date Sun Jul  2 13:04:48 2017
;FORMAT={-:-/ absolute / metric / decimal}
FMAT,2
METRIC,TZ
T1C0.400
T2C0.500
T3C1.000
%
G90
G05
M71
T1
X156.426Y-137.922
X157.226Y-138.43
X158.013Y-134.849
X159.639Y-134.849
X160.528Y-137.668
X161.244Y-138.026
X161.544Y-133.096
X162.11Y-132.53
X166.704Y-122.866
X167.579Y-122.875
X173.325Y-127.838
X173.325Y-129.138
X174.175Y-127.838
X174.175Y-129.138
T2
X152.908Y-129.032
X160.274Y-131.73
X162.56Y-148.336
X168.91Y-128.27
X169.164Y-137.16
X176.808Y-126.41
X184.404Y-133.096
T3
X152.4Y-121.158
X154.94Y-121.158
X158.75Y-112.522
X158.75Y-115.57
X161.29Y-112.522
X161.29Y-115.57
X165.1Y-121.158
X167.64Y-121.158
X170.18Y-121.158
X170.942Y-140.97
X172.72Y-121.158
X173.482Y-140.97
X175.26Y-121.158
X176.022Y-140.97
T0
M30
