G04 #@! TF.FileFunction,Copper,L2,Bot,Signal*
%FSLAX46Y46*%
G04 Gerber Fmt 4.6, Leading zero omitted, Abs format (unit mm)*
G04 Created by KiCad (PCBNEW 4.0.6-e0-6349~53~ubuntu16.04.1) date Sun Jul  2 13:03:49 2017*
%MOMM*%
%LPD*%
G01*
G04 APERTURE LIST*
%ADD10C,0.100000*%
%ADD11R,1.700000X1.700000*%
%ADD12O,1.700000X1.700000*%
%ADD13R,1.250000X1.500000*%
%ADD14R,1.300000X1.500000*%
%ADD15R,0.800000X1.900000*%
%ADD16R,1.600000X0.550000*%
%ADD17R,0.550000X1.600000*%
%ADD18C,0.600000*%
%ADD19C,0.700000*%
%ADD20C,0.400000*%
%ADD21C,0.250000*%
%ADD22C,0.254000*%
G04 APERTURE END LIST*
D10*
D11*
X170942000Y-140970000D03*
D12*
X173482000Y-140970000D03*
X176022000Y-140970000D03*
D11*
X158750000Y-112522000D03*
D12*
X161290000Y-112522000D03*
D13*
X152908000Y-130576000D03*
X152908000Y-133076000D03*
X167132000Y-131592000D03*
X167132000Y-134092000D03*
X162560000Y-142875000D03*
X162560000Y-145375000D03*
D14*
X158750000Y-120062000D03*
X158750000Y-122762000D03*
X155575000Y-141605000D03*
X155575000Y-144305000D03*
X153035000Y-144305000D03*
X153035000Y-141605000D03*
X161290000Y-122762000D03*
X161290000Y-120062000D03*
D15*
X158435000Y-142875000D03*
X160335000Y-142875000D03*
X159385000Y-145875000D03*
D11*
X158750000Y-115570000D03*
D12*
X161290000Y-115570000D03*
D11*
X152400000Y-121158000D03*
D12*
X154940000Y-121158000D03*
D16*
X155770000Y-134685000D03*
X155770000Y-133885000D03*
X155770000Y-133085000D03*
X155770000Y-132285000D03*
X155770000Y-131485000D03*
X155770000Y-130685000D03*
X155770000Y-129885000D03*
X155770000Y-129085000D03*
D17*
X157220000Y-127635000D03*
X158020000Y-127635000D03*
X158820000Y-127635000D03*
X159620000Y-127635000D03*
X160420000Y-127635000D03*
X161220000Y-127635000D03*
X162020000Y-127635000D03*
X162820000Y-127635000D03*
D16*
X164270000Y-129085000D03*
X164270000Y-129885000D03*
X164270000Y-130685000D03*
X164270000Y-131485000D03*
X164270000Y-132285000D03*
X164270000Y-133085000D03*
X164270000Y-133885000D03*
X164270000Y-134685000D03*
D17*
X162820000Y-136135000D03*
X162020000Y-136135000D03*
X161220000Y-136135000D03*
X160420000Y-136135000D03*
X159620000Y-136135000D03*
X158820000Y-136135000D03*
X158020000Y-136135000D03*
X157220000Y-136135000D03*
D11*
X165100000Y-121158000D03*
D12*
X167640000Y-121158000D03*
X170180000Y-121158000D03*
X172720000Y-121158000D03*
X175260000Y-121158000D03*
D18*
X174174800Y-129138400D03*
X173324800Y-129138400D03*
X174174800Y-127838400D03*
X173324800Y-127838400D03*
D19*
X152908000Y-129032000D03*
X169164000Y-137160000D03*
X160274000Y-131730312D03*
X168910000Y-128270000D03*
X176808069Y-126410151D03*
X162560000Y-148336000D03*
X184404000Y-133096000D03*
D18*
X159639000Y-134848600D03*
X156425997Y-137922000D03*
X166703977Y-122866255D03*
X167579058Y-122875058D03*
X161544000Y-133096000D03*
X162109687Y-132530313D03*
X161243543Y-138025771D03*
X160528000Y-137668000D03*
X158013400Y-134848600D03*
X157226000Y-138430000D03*
D20*
X162560000Y-142875000D02*
X162560000Y-143000000D01*
X162968001Y-149186001D02*
X154626037Y-149186001D01*
X162560000Y-143000000D02*
X163685001Y-144125001D01*
X163685001Y-144125001D02*
X163685001Y-148469001D01*
X163685001Y-148469001D02*
X162968001Y-149186001D01*
X154626037Y-149186001D02*
X151184989Y-145744954D01*
X151184989Y-132424011D02*
X152908000Y-130701000D01*
X151184989Y-145744954D02*
X151184989Y-132424011D01*
X152908000Y-130701000D02*
X152908000Y-130576000D01*
X152908000Y-130576000D02*
X152908000Y-129032000D01*
X157233001Y-129885000D02*
X157070001Y-130048000D01*
X157070001Y-130584999D02*
X156970000Y-130685000D01*
X157070001Y-130048000D02*
X157070001Y-130584999D01*
X156970000Y-130685000D02*
X155770000Y-130685000D01*
X164270000Y-129885000D02*
X157233001Y-129885000D01*
X162560000Y-142875000D02*
X160335000Y-142875000D01*
X157634999Y-144325001D02*
X159434999Y-144325001D01*
X159434999Y-144325001D02*
X160335000Y-143425000D01*
X155575000Y-144305000D02*
X157614998Y-144305000D01*
X157614998Y-144305000D02*
X157634999Y-144325001D01*
X155770000Y-130685000D02*
X156945002Y-130685000D01*
X156970000Y-132285000D02*
X155770000Y-132285000D01*
X156945002Y-130685000D02*
X157070001Y-130809999D01*
X157070001Y-130809999D02*
X157070001Y-132209999D01*
X157070001Y-132209999D02*
X156995000Y-132285000D01*
X156995000Y-132285000D02*
X156970000Y-132285000D01*
X152908000Y-130576000D02*
X153017000Y-130685000D01*
X153017000Y-130685000D02*
X155770000Y-130685000D01*
X160335000Y-143425000D02*
X160335000Y-142875000D01*
X153035000Y-144305000D02*
X155575000Y-144305000D01*
X167132000Y-134092000D02*
X167132000Y-135128000D01*
X167132000Y-135128000D02*
X169164000Y-137160000D01*
X162515312Y-131730312D02*
X160274000Y-131730312D01*
X155770000Y-133085000D02*
X157184963Y-133085000D01*
X157184963Y-133085000D02*
X158539651Y-131730312D01*
X158539651Y-131730312D02*
X160274000Y-131730312D01*
X152908000Y-134226000D02*
X151884999Y-135249001D01*
X152908000Y-133076000D02*
X152908000Y-134226000D01*
X151884999Y-135249001D02*
X151884999Y-145455001D01*
X151884999Y-145455001D02*
X154765998Y-148336000D01*
X154765998Y-148336000D02*
X162065026Y-148336000D01*
X162065026Y-148336000D02*
X162560000Y-148336000D01*
X167132000Y-134092000D02*
X167132000Y-133967000D01*
X167132000Y-133967000D02*
X168910000Y-132189000D01*
X168910000Y-132189000D02*
X168910000Y-128270000D01*
X167132000Y-134092000D02*
X170405202Y-134092000D01*
X170405202Y-134092000D02*
X176808069Y-127689133D01*
X176808069Y-127689133D02*
X176808069Y-126410151D01*
X161290000Y-122762000D02*
X161290000Y-122662000D01*
X161290000Y-122662000D02*
X160139999Y-121511999D01*
X152400000Y-122408000D02*
X152400000Y-121158000D01*
X160139999Y-121511999D02*
X156584003Y-121511999D01*
X156584003Y-121511999D02*
X155588001Y-122508001D01*
X155588001Y-122508001D02*
X152500001Y-122508001D01*
X152500001Y-122508001D02*
X152400000Y-122408000D01*
X161290000Y-122662000D02*
X162640001Y-121311999D01*
X162640001Y-121311999D02*
X162640001Y-113872001D01*
X162640001Y-113872001D02*
X162139999Y-113371999D01*
X162139999Y-113371999D02*
X161290000Y-112522000D01*
X164270000Y-132285000D02*
X163070000Y-132285000D01*
X163070000Y-132285000D02*
X162515312Y-131730312D01*
X162560000Y-145375000D02*
X159885000Y-145375000D01*
X159885000Y-145375000D02*
X159385000Y-145875000D01*
X162560000Y-145375000D02*
X162560000Y-148336000D01*
X167132000Y-134092000D02*
X165325000Y-132285000D01*
X165325000Y-132285000D02*
X164270000Y-132285000D01*
X155770000Y-131485000D02*
X154594998Y-131485000D01*
X154594998Y-131485000D02*
X154469999Y-131609999D01*
X154469999Y-131609999D02*
X154469999Y-132984999D01*
X154469999Y-132984999D02*
X154570000Y-133085000D01*
X154570000Y-133085000D02*
X155770000Y-133085000D01*
X152908000Y-133076000D02*
X155761000Y-133076000D01*
X155761000Y-133076000D02*
X155770000Y-133085000D01*
D21*
X167132000Y-131592000D02*
X166257000Y-131592000D01*
X166257000Y-131592000D02*
X166150000Y-131485000D01*
X166150000Y-131485000D02*
X165320000Y-131485000D01*
X165320000Y-131485000D02*
X164270000Y-131485000D01*
X159620000Y-136135000D02*
X159620000Y-134867600D01*
X159620000Y-134867600D02*
X159639000Y-134848600D01*
X159620000Y-136135000D02*
X159620000Y-137185000D01*
X159620000Y-137185000D02*
X156275001Y-140529999D01*
X156275001Y-140529999D02*
X154010001Y-140529999D01*
X154010001Y-140529999D02*
X153035000Y-141505000D01*
X153035000Y-141505000D02*
X153035000Y-141605000D01*
X155770000Y-134685000D02*
X155770000Y-137266003D01*
X155770000Y-137266003D02*
X156425997Y-137922000D01*
X161692590Y-125476000D02*
X164094232Y-125476000D01*
X164094232Y-125476000D02*
X166703977Y-122866255D01*
X160420000Y-127635000D02*
X160420000Y-126748590D01*
X160420000Y-126748590D02*
X161692590Y-125476000D01*
X164394127Y-126059989D02*
X161745010Y-126059990D01*
X161745010Y-126059990D02*
X161220000Y-126585000D01*
X161220000Y-126585000D02*
X161220000Y-127635000D01*
X167579058Y-122875058D02*
X164394127Y-126059989D01*
X170180000Y-121158000D02*
X164828001Y-126509999D01*
X164828001Y-126509999D02*
X162095001Y-126509999D01*
X162095001Y-126509999D02*
X162020000Y-126585000D01*
X162020000Y-126585000D02*
X162020000Y-127635000D01*
X169641409Y-122333001D02*
X164339410Y-127635000D01*
X164339410Y-127635000D02*
X162820000Y-127635000D01*
X172720000Y-121158000D02*
X171544999Y-122333001D01*
X171544999Y-122333001D02*
X169641409Y-122333001D01*
X169827809Y-122783011D02*
X164270000Y-128340820D01*
X164270000Y-128340820D02*
X164270000Y-129085000D01*
X175260000Y-121158000D02*
X173634989Y-122783011D01*
X173634989Y-122783011D02*
X169827809Y-122783011D01*
X164270000Y-134685000D02*
X163118577Y-134685000D01*
X163118577Y-134685000D02*
X161544000Y-133110423D01*
X161544000Y-133110423D02*
X161544000Y-133096000D01*
X164205000Y-134620000D02*
X164270000Y-134685000D01*
X161290000Y-120062000D02*
X161290000Y-119062000D01*
X161290000Y-119062000D02*
X161290000Y-115570000D01*
X164270000Y-133885000D02*
X163220000Y-133885000D01*
X162109687Y-132774687D02*
X162109687Y-132530313D01*
X163220000Y-133885000D02*
X162109687Y-132774687D01*
X162020000Y-136135000D02*
X162020000Y-139074998D01*
X162020000Y-139074998D02*
X159419998Y-141675000D01*
X159419998Y-141675000D02*
X159085000Y-141675000D01*
X159085000Y-141675000D02*
X158435000Y-142325000D01*
X158435000Y-142325000D02*
X158435000Y-142875000D01*
X158435000Y-142875000D02*
X156745000Y-142875000D01*
X156745000Y-142875000D02*
X155575000Y-141705000D01*
X155575000Y-141705000D02*
X155575000Y-141605000D01*
X161220000Y-136135000D02*
X161220000Y-138002228D01*
X161220000Y-138002228D02*
X161243543Y-138025771D01*
X161290000Y-136065000D02*
X161220000Y-136135000D01*
X160420000Y-136135000D02*
X160420000Y-137560000D01*
X160420000Y-137560000D02*
X160528000Y-137668000D01*
X160274000Y-135989000D02*
X160420000Y-136135000D01*
X160528000Y-136027000D02*
X160420000Y-136135000D01*
X158020000Y-136135000D02*
X158020000Y-134855200D01*
X158020000Y-134855200D02*
X158013400Y-134848600D01*
X157988000Y-136103000D02*
X158020000Y-136135000D01*
X157220000Y-136135000D02*
X157220000Y-138424000D01*
X157220000Y-138424000D02*
X157226000Y-138430000D01*
X157226000Y-136141000D02*
X157220000Y-136135000D01*
X158750000Y-120062000D02*
X158750000Y-119062000D01*
X158750000Y-119062000D02*
X157574999Y-117886999D01*
X157574999Y-117886999D02*
X157574999Y-112597001D01*
X157650000Y-112522000D02*
X158750000Y-112522000D01*
X157574999Y-112597001D02*
X157650000Y-112522000D01*
X158750000Y-122762000D02*
X158750000Y-123762000D01*
X158750000Y-123762000D02*
X158020000Y-124492000D01*
X158020000Y-124492000D02*
X158020000Y-126585000D01*
X158020000Y-126585000D02*
X158020000Y-127635000D01*
D22*
G36*
X177123000Y-118000000D02*
X177131685Y-118046159D01*
X177158965Y-118088553D01*
X177200590Y-118116994D01*
X177250000Y-118127000D01*
X189290000Y-118127000D01*
X189290000Y-136930069D01*
X189197983Y-137392667D01*
X188975555Y-137725555D01*
X188642666Y-137947984D01*
X188111486Y-138053642D01*
X188111481Y-138053644D01*
X187441790Y-138186853D01*
X187313819Y-138239861D01*
X187185849Y-138292867D01*
X186618108Y-138672219D01*
X186520164Y-138770164D01*
X186422219Y-138868108D01*
X186042867Y-139435849D01*
X186009321Y-139516838D01*
X185936853Y-139691790D01*
X185803642Y-140361486D01*
X185803643Y-140500000D01*
X185803642Y-140638514D01*
X185936853Y-141308210D01*
X185980740Y-141414161D01*
X186042867Y-141564151D01*
X186422219Y-142131892D01*
X186520164Y-142229836D01*
X186618108Y-142327781D01*
X187185849Y-142707133D01*
X187313819Y-142760139D01*
X187441790Y-142813147D01*
X188111481Y-142946356D01*
X188111486Y-142946358D01*
X188642666Y-143052016D01*
X188975555Y-143274445D01*
X189197983Y-143607333D01*
X189290000Y-144069931D01*
X189290000Y-149290000D01*
X186210000Y-149290000D01*
X186210000Y-148250000D01*
X186196358Y-148181416D01*
X186196358Y-148111486D01*
X186120238Y-147728804D01*
X186014223Y-147472863D01*
X186014223Y-147472862D01*
X185797451Y-147148438D01*
X185601562Y-146952550D01*
X185601561Y-146952549D01*
X185277138Y-146735776D01*
X185093368Y-146659657D01*
X185021196Y-146629762D01*
X184638513Y-146553642D01*
X184500000Y-146553642D01*
X183978804Y-146629762D01*
X183906632Y-146659657D01*
X183722862Y-146735777D01*
X183398438Y-146952549D01*
X183239501Y-147111487D01*
X183202549Y-147148439D01*
X182985776Y-147472862D01*
X182935581Y-147594046D01*
X182879762Y-147728804D01*
X182803642Y-148111487D01*
X182803642Y-148181416D01*
X182790000Y-148250000D01*
X182790000Y-149290000D01*
X164044870Y-149290000D01*
X164275435Y-149059435D01*
X164456440Y-148788542D01*
X164520001Y-148469001D01*
X164520001Y-144125001D01*
X164510342Y-144076441D01*
X164456441Y-143805461D01*
X164275435Y-143534567D01*
X163832440Y-143091572D01*
X163832440Y-142125000D01*
X163788162Y-141889683D01*
X163649090Y-141673559D01*
X163436890Y-141528569D01*
X163185000Y-141477560D01*
X161935000Y-141477560D01*
X161699683Y-141521838D01*
X161483559Y-141660910D01*
X161365312Y-141833971D01*
X161338162Y-141689683D01*
X161199090Y-141473559D01*
X160986890Y-141328569D01*
X160865760Y-141304040D01*
X162049800Y-140120000D01*
X169444560Y-140120000D01*
X169444560Y-141820000D01*
X169488838Y-142055317D01*
X169627910Y-142271441D01*
X169840110Y-142416431D01*
X170092000Y-142467440D01*
X171792000Y-142467440D01*
X172027317Y-142423162D01*
X172243441Y-142284090D01*
X172388431Y-142071890D01*
X172410301Y-141963893D01*
X172715076Y-142241645D01*
X173125110Y-142411476D01*
X173355000Y-142290155D01*
X173355000Y-141097000D01*
X173335000Y-141097000D01*
X173335000Y-140843000D01*
X173355000Y-140843000D01*
X173355000Y-139649845D01*
X173609000Y-139649845D01*
X173609000Y-140843000D01*
X173629000Y-140843000D01*
X173629000Y-141097000D01*
X173609000Y-141097000D01*
X173609000Y-142290155D01*
X173838890Y-142411476D01*
X174248924Y-142241645D01*
X174677183Y-141851358D01*
X174744298Y-141708447D01*
X174971946Y-142049147D01*
X175453715Y-142371054D01*
X176022000Y-142484093D01*
X176590285Y-142371054D01*
X177072054Y-142049147D01*
X177393961Y-141567378D01*
X177507000Y-140999093D01*
X177507000Y-140940907D01*
X177393961Y-140372622D01*
X177072054Y-139890853D01*
X176590285Y-139568946D01*
X176022000Y-139455907D01*
X175453715Y-139568946D01*
X174971946Y-139890853D01*
X174744298Y-140231553D01*
X174677183Y-140088642D01*
X174248924Y-139698355D01*
X173838890Y-139528524D01*
X173609000Y-139649845D01*
X173355000Y-139649845D01*
X173125110Y-139528524D01*
X172715076Y-139698355D01*
X172412063Y-139974501D01*
X172395162Y-139884683D01*
X172256090Y-139668559D01*
X172043890Y-139523569D01*
X171792000Y-139472560D01*
X170092000Y-139472560D01*
X169856683Y-139516838D01*
X169640559Y-139655910D01*
X169495569Y-139868110D01*
X169444560Y-140120000D01*
X162049800Y-140120000D01*
X162557401Y-139612399D01*
X162722148Y-139365837D01*
X162780000Y-139074998D01*
X162780000Y-137582440D01*
X163095000Y-137582440D01*
X163330317Y-137538162D01*
X163546441Y-137399090D01*
X163691431Y-137186890D01*
X163742440Y-136935000D01*
X163742440Y-135607440D01*
X165070000Y-135607440D01*
X165305317Y-135563162D01*
X165521441Y-135424090D01*
X165666431Y-135211890D01*
X165717440Y-134960000D01*
X165717440Y-134410000D01*
X165711372Y-134377750D01*
X165872000Y-134377750D01*
X165872000Y-134968309D01*
X165968673Y-135201698D01*
X166147301Y-135380327D01*
X166380690Y-135477000D01*
X166846250Y-135477000D01*
X167005000Y-135318250D01*
X167005000Y-134219000D01*
X167259000Y-134219000D01*
X167259000Y-135318250D01*
X167417750Y-135477000D01*
X167883310Y-135477000D01*
X168116699Y-135380327D01*
X168295327Y-135201698D01*
X168392000Y-134968309D01*
X168392000Y-134377750D01*
X168233250Y-134219000D01*
X167259000Y-134219000D01*
X167005000Y-134219000D01*
X166030750Y-134219000D01*
X165872000Y-134377750D01*
X165711372Y-134377750D01*
X165693056Y-134280411D01*
X165717440Y-134160000D01*
X165717440Y-133610000D01*
X165693056Y-133480411D01*
X165717440Y-133360000D01*
X165717440Y-132810000D01*
X165697550Y-132704295D01*
X165705000Y-132686310D01*
X165705000Y-132570750D01*
X165608599Y-132474349D01*
X165534090Y-132358559D01*
X165426603Y-132285116D01*
X165488946Y-132245000D01*
X165859560Y-132245000D01*
X165859560Y-132342000D01*
X165903838Y-132577317D01*
X166042910Y-132793441D01*
X166111006Y-132839969D01*
X165968673Y-132982302D01*
X165872000Y-133215691D01*
X165872000Y-133806250D01*
X166030750Y-133965000D01*
X167005000Y-133965000D01*
X167005000Y-133945000D01*
X167259000Y-133945000D01*
X167259000Y-133965000D01*
X168233250Y-133965000D01*
X168392000Y-133806250D01*
X168392000Y-133215691D01*
X168295327Y-132982302D01*
X168154090Y-132841064D01*
X168208441Y-132806090D01*
X168353431Y-132593890D01*
X168404440Y-132342000D01*
X168404440Y-130842000D01*
X168360162Y-130606683D01*
X168221090Y-130390559D01*
X168008890Y-130245569D01*
X167757000Y-130194560D01*
X166507000Y-130194560D01*
X166271683Y-130238838D01*
X166055559Y-130377910D01*
X165910569Y-130590110D01*
X165883253Y-130725000D01*
X165717440Y-130725000D01*
X165717440Y-130410000D01*
X165693056Y-130280411D01*
X165717440Y-130160000D01*
X165717440Y-129610000D01*
X165693056Y-129480411D01*
X165717440Y-129360000D01*
X165717440Y-128810000D01*
X165673162Y-128574683D01*
X165534090Y-128358559D01*
X165411099Y-128274523D01*
X165662055Y-128023567D01*
X172389638Y-128023567D01*
X172531683Y-128367343D01*
X172652510Y-128488381D01*
X172532608Y-128608073D01*
X172389962Y-128951601D01*
X172389638Y-129323567D01*
X172531683Y-129667343D01*
X172794473Y-129930592D01*
X173138001Y-130073238D01*
X173509967Y-130073562D01*
X173749966Y-129974397D01*
X173988001Y-130073238D01*
X174359967Y-130073562D01*
X174703743Y-129931517D01*
X174966992Y-129668727D01*
X175109638Y-129325199D01*
X175109962Y-128953233D01*
X174967917Y-128609457D01*
X174847090Y-128488419D01*
X174966992Y-128368727D01*
X175109638Y-128025199D01*
X175109962Y-127653233D01*
X174967917Y-127309457D01*
X174705127Y-127046208D01*
X174361599Y-126903562D01*
X173989633Y-126903238D01*
X173749634Y-127002403D01*
X173511599Y-126903562D01*
X173139633Y-126903238D01*
X172795857Y-127045283D01*
X172532608Y-127308073D01*
X172389962Y-127651601D01*
X172389638Y-128023567D01*
X165662055Y-128023567D01*
X170142611Y-123543011D01*
X173634989Y-123543011D01*
X173925828Y-123485159D01*
X174172390Y-123320412D01*
X174893592Y-122599210D01*
X175260000Y-122672093D01*
X175828285Y-122559054D01*
X176310054Y-122237147D01*
X176631961Y-121755378D01*
X176745000Y-121187093D01*
X176745000Y-121128907D01*
X176631961Y-120560622D01*
X176310054Y-120078853D01*
X175828285Y-119756946D01*
X175260000Y-119643907D01*
X174691715Y-119756946D01*
X174209946Y-120078853D01*
X173990000Y-120408026D01*
X173770054Y-120078853D01*
X173288285Y-119756946D01*
X172720000Y-119643907D01*
X172151715Y-119756946D01*
X171669946Y-120078853D01*
X171450000Y-120408026D01*
X171230054Y-120078853D01*
X170748285Y-119756946D01*
X170180000Y-119643907D01*
X169611715Y-119756946D01*
X169129946Y-120078853D01*
X168910000Y-120408026D01*
X168690054Y-120078853D01*
X168208285Y-119756946D01*
X167640000Y-119643907D01*
X167071715Y-119756946D01*
X166589946Y-120078853D01*
X166562150Y-120120452D01*
X166553162Y-120072683D01*
X166414090Y-119856559D01*
X166201890Y-119711569D01*
X165950000Y-119660560D01*
X164250000Y-119660560D01*
X164014683Y-119704838D01*
X163798559Y-119843910D01*
X163653569Y-120056110D01*
X163602560Y-120308000D01*
X163602560Y-122008000D01*
X163646838Y-122243317D01*
X163785910Y-122459441D01*
X163998110Y-122604431D01*
X164250000Y-122655440D01*
X165779111Y-122655440D01*
X165769139Y-122679456D01*
X165769098Y-122726332D01*
X163779430Y-124716000D01*
X161692590Y-124716000D01*
X161401751Y-124773852D01*
X161155189Y-124938599D01*
X159904337Y-126189451D01*
X159895000Y-126187560D01*
X159345000Y-126187560D01*
X159215411Y-126211944D01*
X159095000Y-126187560D01*
X158780000Y-126187560D01*
X158780000Y-124806802D01*
X159287401Y-124299401D01*
X159380920Y-124159440D01*
X159400000Y-124159440D01*
X159635317Y-124115162D01*
X159851441Y-123976090D01*
X159996431Y-123763890D01*
X160016325Y-123665650D01*
X160101673Y-123871698D01*
X160280301Y-124050327D01*
X160513690Y-124147000D01*
X161004250Y-124147000D01*
X161163000Y-123988250D01*
X161163000Y-122889000D01*
X161417000Y-122889000D01*
X161417000Y-123988250D01*
X161575750Y-124147000D01*
X162066310Y-124147000D01*
X162299699Y-124050327D01*
X162478327Y-123871698D01*
X162575000Y-123638309D01*
X162575000Y-123047750D01*
X162416250Y-122889000D01*
X161417000Y-122889000D01*
X161163000Y-122889000D01*
X161143000Y-122889000D01*
X161143000Y-122635000D01*
X161163000Y-122635000D01*
X161163000Y-122615000D01*
X161417000Y-122615000D01*
X161417000Y-122635000D01*
X162416250Y-122635000D01*
X162575000Y-122476250D01*
X162575000Y-121885691D01*
X162478327Y-121652302D01*
X162299699Y-121473673D01*
X162163713Y-121417346D01*
X162175317Y-121415162D01*
X162391441Y-121276090D01*
X162536431Y-121063890D01*
X162587440Y-120812000D01*
X162587440Y-119312000D01*
X162543162Y-119076683D01*
X162404090Y-118860559D01*
X162191890Y-118715569D01*
X162050000Y-118686836D01*
X162050000Y-116842954D01*
X162340054Y-116649147D01*
X162661961Y-116167378D01*
X162775000Y-115599093D01*
X162775000Y-115540907D01*
X162661961Y-114972622D01*
X162340054Y-114490853D01*
X161858285Y-114168946D01*
X161290000Y-114055907D01*
X160721715Y-114168946D01*
X160239946Y-114490853D01*
X160212150Y-114532452D01*
X160203162Y-114484683D01*
X160064090Y-114268559D01*
X159851890Y-114123569D01*
X159600000Y-114072560D01*
X158334999Y-114072560D01*
X158334999Y-114019440D01*
X159600000Y-114019440D01*
X159835317Y-113975162D01*
X160051441Y-113836090D01*
X160196431Y-113623890D01*
X160218301Y-113515893D01*
X160523076Y-113793645D01*
X160933110Y-113963476D01*
X161163000Y-113842155D01*
X161163000Y-112649000D01*
X161417000Y-112649000D01*
X161417000Y-113842155D01*
X161646890Y-113963476D01*
X162056924Y-113793645D01*
X162485183Y-113403358D01*
X162731486Y-112878892D01*
X162610819Y-112649000D01*
X161417000Y-112649000D01*
X161163000Y-112649000D01*
X161143000Y-112649000D01*
X161143000Y-112395000D01*
X161163000Y-112395000D01*
X161163000Y-112375000D01*
X161417000Y-112375000D01*
X161417000Y-112395000D01*
X162610819Y-112395000D01*
X162731486Y-112165108D01*
X162517755Y-111710000D01*
X177123000Y-111710000D01*
X177123000Y-118000000D01*
X177123000Y-118000000D01*
G37*
X177123000Y-118000000D02*
X177131685Y-118046159D01*
X177158965Y-118088553D01*
X177200590Y-118116994D01*
X177250000Y-118127000D01*
X189290000Y-118127000D01*
X189290000Y-136930069D01*
X189197983Y-137392667D01*
X188975555Y-137725555D01*
X188642666Y-137947984D01*
X188111486Y-138053642D01*
X188111481Y-138053644D01*
X187441790Y-138186853D01*
X187313819Y-138239861D01*
X187185849Y-138292867D01*
X186618108Y-138672219D01*
X186520164Y-138770164D01*
X186422219Y-138868108D01*
X186042867Y-139435849D01*
X186009321Y-139516838D01*
X185936853Y-139691790D01*
X185803642Y-140361486D01*
X185803643Y-140500000D01*
X185803642Y-140638514D01*
X185936853Y-141308210D01*
X185980740Y-141414161D01*
X186042867Y-141564151D01*
X186422219Y-142131892D01*
X186520164Y-142229836D01*
X186618108Y-142327781D01*
X187185849Y-142707133D01*
X187313819Y-142760139D01*
X187441790Y-142813147D01*
X188111481Y-142946356D01*
X188111486Y-142946358D01*
X188642666Y-143052016D01*
X188975555Y-143274445D01*
X189197983Y-143607333D01*
X189290000Y-144069931D01*
X189290000Y-149290000D01*
X186210000Y-149290000D01*
X186210000Y-148250000D01*
X186196358Y-148181416D01*
X186196358Y-148111486D01*
X186120238Y-147728804D01*
X186014223Y-147472863D01*
X186014223Y-147472862D01*
X185797451Y-147148438D01*
X185601562Y-146952550D01*
X185601561Y-146952549D01*
X185277138Y-146735776D01*
X185093368Y-146659657D01*
X185021196Y-146629762D01*
X184638513Y-146553642D01*
X184500000Y-146553642D01*
X183978804Y-146629762D01*
X183906632Y-146659657D01*
X183722862Y-146735777D01*
X183398438Y-146952549D01*
X183239501Y-147111487D01*
X183202549Y-147148439D01*
X182985776Y-147472862D01*
X182935581Y-147594046D01*
X182879762Y-147728804D01*
X182803642Y-148111487D01*
X182803642Y-148181416D01*
X182790000Y-148250000D01*
X182790000Y-149290000D01*
X164044870Y-149290000D01*
X164275435Y-149059435D01*
X164456440Y-148788542D01*
X164520001Y-148469001D01*
X164520001Y-144125001D01*
X164510342Y-144076441D01*
X164456441Y-143805461D01*
X164275435Y-143534567D01*
X163832440Y-143091572D01*
X163832440Y-142125000D01*
X163788162Y-141889683D01*
X163649090Y-141673559D01*
X163436890Y-141528569D01*
X163185000Y-141477560D01*
X161935000Y-141477560D01*
X161699683Y-141521838D01*
X161483559Y-141660910D01*
X161365312Y-141833971D01*
X161338162Y-141689683D01*
X161199090Y-141473559D01*
X160986890Y-141328569D01*
X160865760Y-141304040D01*
X162049800Y-140120000D01*
X169444560Y-140120000D01*
X169444560Y-141820000D01*
X169488838Y-142055317D01*
X169627910Y-142271441D01*
X169840110Y-142416431D01*
X170092000Y-142467440D01*
X171792000Y-142467440D01*
X172027317Y-142423162D01*
X172243441Y-142284090D01*
X172388431Y-142071890D01*
X172410301Y-141963893D01*
X172715076Y-142241645D01*
X173125110Y-142411476D01*
X173355000Y-142290155D01*
X173355000Y-141097000D01*
X173335000Y-141097000D01*
X173335000Y-140843000D01*
X173355000Y-140843000D01*
X173355000Y-139649845D01*
X173609000Y-139649845D01*
X173609000Y-140843000D01*
X173629000Y-140843000D01*
X173629000Y-141097000D01*
X173609000Y-141097000D01*
X173609000Y-142290155D01*
X173838890Y-142411476D01*
X174248924Y-142241645D01*
X174677183Y-141851358D01*
X174744298Y-141708447D01*
X174971946Y-142049147D01*
X175453715Y-142371054D01*
X176022000Y-142484093D01*
X176590285Y-142371054D01*
X177072054Y-142049147D01*
X177393961Y-141567378D01*
X177507000Y-140999093D01*
X177507000Y-140940907D01*
X177393961Y-140372622D01*
X177072054Y-139890853D01*
X176590285Y-139568946D01*
X176022000Y-139455907D01*
X175453715Y-139568946D01*
X174971946Y-139890853D01*
X174744298Y-140231553D01*
X174677183Y-140088642D01*
X174248924Y-139698355D01*
X173838890Y-139528524D01*
X173609000Y-139649845D01*
X173355000Y-139649845D01*
X173125110Y-139528524D01*
X172715076Y-139698355D01*
X172412063Y-139974501D01*
X172395162Y-139884683D01*
X172256090Y-139668559D01*
X172043890Y-139523569D01*
X171792000Y-139472560D01*
X170092000Y-139472560D01*
X169856683Y-139516838D01*
X169640559Y-139655910D01*
X169495569Y-139868110D01*
X169444560Y-140120000D01*
X162049800Y-140120000D01*
X162557401Y-139612399D01*
X162722148Y-139365837D01*
X162780000Y-139074998D01*
X162780000Y-137582440D01*
X163095000Y-137582440D01*
X163330317Y-137538162D01*
X163546441Y-137399090D01*
X163691431Y-137186890D01*
X163742440Y-136935000D01*
X163742440Y-135607440D01*
X165070000Y-135607440D01*
X165305317Y-135563162D01*
X165521441Y-135424090D01*
X165666431Y-135211890D01*
X165717440Y-134960000D01*
X165717440Y-134410000D01*
X165711372Y-134377750D01*
X165872000Y-134377750D01*
X165872000Y-134968309D01*
X165968673Y-135201698D01*
X166147301Y-135380327D01*
X166380690Y-135477000D01*
X166846250Y-135477000D01*
X167005000Y-135318250D01*
X167005000Y-134219000D01*
X167259000Y-134219000D01*
X167259000Y-135318250D01*
X167417750Y-135477000D01*
X167883310Y-135477000D01*
X168116699Y-135380327D01*
X168295327Y-135201698D01*
X168392000Y-134968309D01*
X168392000Y-134377750D01*
X168233250Y-134219000D01*
X167259000Y-134219000D01*
X167005000Y-134219000D01*
X166030750Y-134219000D01*
X165872000Y-134377750D01*
X165711372Y-134377750D01*
X165693056Y-134280411D01*
X165717440Y-134160000D01*
X165717440Y-133610000D01*
X165693056Y-133480411D01*
X165717440Y-133360000D01*
X165717440Y-132810000D01*
X165697550Y-132704295D01*
X165705000Y-132686310D01*
X165705000Y-132570750D01*
X165608599Y-132474349D01*
X165534090Y-132358559D01*
X165426603Y-132285116D01*
X165488946Y-132245000D01*
X165859560Y-132245000D01*
X165859560Y-132342000D01*
X165903838Y-132577317D01*
X166042910Y-132793441D01*
X166111006Y-132839969D01*
X165968673Y-132982302D01*
X165872000Y-133215691D01*
X165872000Y-133806250D01*
X166030750Y-133965000D01*
X167005000Y-133965000D01*
X167005000Y-133945000D01*
X167259000Y-133945000D01*
X167259000Y-133965000D01*
X168233250Y-133965000D01*
X168392000Y-133806250D01*
X168392000Y-133215691D01*
X168295327Y-132982302D01*
X168154090Y-132841064D01*
X168208441Y-132806090D01*
X168353431Y-132593890D01*
X168404440Y-132342000D01*
X168404440Y-130842000D01*
X168360162Y-130606683D01*
X168221090Y-130390559D01*
X168008890Y-130245569D01*
X167757000Y-130194560D01*
X166507000Y-130194560D01*
X166271683Y-130238838D01*
X166055559Y-130377910D01*
X165910569Y-130590110D01*
X165883253Y-130725000D01*
X165717440Y-130725000D01*
X165717440Y-130410000D01*
X165693056Y-130280411D01*
X165717440Y-130160000D01*
X165717440Y-129610000D01*
X165693056Y-129480411D01*
X165717440Y-129360000D01*
X165717440Y-128810000D01*
X165673162Y-128574683D01*
X165534090Y-128358559D01*
X165411099Y-128274523D01*
X165662055Y-128023567D01*
X172389638Y-128023567D01*
X172531683Y-128367343D01*
X172652510Y-128488381D01*
X172532608Y-128608073D01*
X172389962Y-128951601D01*
X172389638Y-129323567D01*
X172531683Y-129667343D01*
X172794473Y-129930592D01*
X173138001Y-130073238D01*
X173509967Y-130073562D01*
X173749966Y-129974397D01*
X173988001Y-130073238D01*
X174359967Y-130073562D01*
X174703743Y-129931517D01*
X174966992Y-129668727D01*
X175109638Y-129325199D01*
X175109962Y-128953233D01*
X174967917Y-128609457D01*
X174847090Y-128488419D01*
X174966992Y-128368727D01*
X175109638Y-128025199D01*
X175109962Y-127653233D01*
X174967917Y-127309457D01*
X174705127Y-127046208D01*
X174361599Y-126903562D01*
X173989633Y-126903238D01*
X173749634Y-127002403D01*
X173511599Y-126903562D01*
X173139633Y-126903238D01*
X172795857Y-127045283D01*
X172532608Y-127308073D01*
X172389962Y-127651601D01*
X172389638Y-128023567D01*
X165662055Y-128023567D01*
X170142611Y-123543011D01*
X173634989Y-123543011D01*
X173925828Y-123485159D01*
X174172390Y-123320412D01*
X174893592Y-122599210D01*
X175260000Y-122672093D01*
X175828285Y-122559054D01*
X176310054Y-122237147D01*
X176631961Y-121755378D01*
X176745000Y-121187093D01*
X176745000Y-121128907D01*
X176631961Y-120560622D01*
X176310054Y-120078853D01*
X175828285Y-119756946D01*
X175260000Y-119643907D01*
X174691715Y-119756946D01*
X174209946Y-120078853D01*
X173990000Y-120408026D01*
X173770054Y-120078853D01*
X173288285Y-119756946D01*
X172720000Y-119643907D01*
X172151715Y-119756946D01*
X171669946Y-120078853D01*
X171450000Y-120408026D01*
X171230054Y-120078853D01*
X170748285Y-119756946D01*
X170180000Y-119643907D01*
X169611715Y-119756946D01*
X169129946Y-120078853D01*
X168910000Y-120408026D01*
X168690054Y-120078853D01*
X168208285Y-119756946D01*
X167640000Y-119643907D01*
X167071715Y-119756946D01*
X166589946Y-120078853D01*
X166562150Y-120120452D01*
X166553162Y-120072683D01*
X166414090Y-119856559D01*
X166201890Y-119711569D01*
X165950000Y-119660560D01*
X164250000Y-119660560D01*
X164014683Y-119704838D01*
X163798559Y-119843910D01*
X163653569Y-120056110D01*
X163602560Y-120308000D01*
X163602560Y-122008000D01*
X163646838Y-122243317D01*
X163785910Y-122459441D01*
X163998110Y-122604431D01*
X164250000Y-122655440D01*
X165779111Y-122655440D01*
X165769139Y-122679456D01*
X165769098Y-122726332D01*
X163779430Y-124716000D01*
X161692590Y-124716000D01*
X161401751Y-124773852D01*
X161155189Y-124938599D01*
X159904337Y-126189451D01*
X159895000Y-126187560D01*
X159345000Y-126187560D01*
X159215411Y-126211944D01*
X159095000Y-126187560D01*
X158780000Y-126187560D01*
X158780000Y-124806802D01*
X159287401Y-124299401D01*
X159380920Y-124159440D01*
X159400000Y-124159440D01*
X159635317Y-124115162D01*
X159851441Y-123976090D01*
X159996431Y-123763890D01*
X160016325Y-123665650D01*
X160101673Y-123871698D01*
X160280301Y-124050327D01*
X160513690Y-124147000D01*
X161004250Y-124147000D01*
X161163000Y-123988250D01*
X161163000Y-122889000D01*
X161417000Y-122889000D01*
X161417000Y-123988250D01*
X161575750Y-124147000D01*
X162066310Y-124147000D01*
X162299699Y-124050327D01*
X162478327Y-123871698D01*
X162575000Y-123638309D01*
X162575000Y-123047750D01*
X162416250Y-122889000D01*
X161417000Y-122889000D01*
X161163000Y-122889000D01*
X161143000Y-122889000D01*
X161143000Y-122635000D01*
X161163000Y-122635000D01*
X161163000Y-122615000D01*
X161417000Y-122615000D01*
X161417000Y-122635000D01*
X162416250Y-122635000D01*
X162575000Y-122476250D01*
X162575000Y-121885691D01*
X162478327Y-121652302D01*
X162299699Y-121473673D01*
X162163713Y-121417346D01*
X162175317Y-121415162D01*
X162391441Y-121276090D01*
X162536431Y-121063890D01*
X162587440Y-120812000D01*
X162587440Y-119312000D01*
X162543162Y-119076683D01*
X162404090Y-118860559D01*
X162191890Y-118715569D01*
X162050000Y-118686836D01*
X162050000Y-116842954D01*
X162340054Y-116649147D01*
X162661961Y-116167378D01*
X162775000Y-115599093D01*
X162775000Y-115540907D01*
X162661961Y-114972622D01*
X162340054Y-114490853D01*
X161858285Y-114168946D01*
X161290000Y-114055907D01*
X160721715Y-114168946D01*
X160239946Y-114490853D01*
X160212150Y-114532452D01*
X160203162Y-114484683D01*
X160064090Y-114268559D01*
X159851890Y-114123569D01*
X159600000Y-114072560D01*
X158334999Y-114072560D01*
X158334999Y-114019440D01*
X159600000Y-114019440D01*
X159835317Y-113975162D01*
X160051441Y-113836090D01*
X160196431Y-113623890D01*
X160218301Y-113515893D01*
X160523076Y-113793645D01*
X160933110Y-113963476D01*
X161163000Y-113842155D01*
X161163000Y-112649000D01*
X161417000Y-112649000D01*
X161417000Y-113842155D01*
X161646890Y-113963476D01*
X162056924Y-113793645D01*
X162485183Y-113403358D01*
X162731486Y-112878892D01*
X162610819Y-112649000D01*
X161417000Y-112649000D01*
X161163000Y-112649000D01*
X161143000Y-112649000D01*
X161143000Y-112395000D01*
X161163000Y-112395000D01*
X161163000Y-112375000D01*
X161417000Y-112375000D01*
X161417000Y-112395000D01*
X162610819Y-112395000D01*
X162731486Y-112165108D01*
X162517755Y-111710000D01*
X177123000Y-111710000D01*
X177123000Y-118000000D01*
G36*
X161470910Y-144076441D02*
X161539006Y-144122969D01*
X161396673Y-144265302D01*
X161300000Y-144498691D01*
X161300000Y-145089250D01*
X161458750Y-145248000D01*
X162433000Y-145248000D01*
X162433000Y-145228000D01*
X162687000Y-145228000D01*
X162687000Y-145248000D01*
X162707000Y-145248000D01*
X162707000Y-145502000D01*
X162687000Y-145502000D01*
X162687000Y-146601250D01*
X162845750Y-146760000D01*
X162850001Y-146760000D01*
X162850001Y-148123133D01*
X162622133Y-148351001D01*
X154971905Y-148351001D01*
X152781654Y-146160750D01*
X158350000Y-146160750D01*
X158350000Y-146951309D01*
X158446673Y-147184698D01*
X158625301Y-147363327D01*
X158858690Y-147460000D01*
X159099250Y-147460000D01*
X159258000Y-147301250D01*
X159258000Y-146002000D01*
X159512000Y-146002000D01*
X159512000Y-147301250D01*
X159670750Y-147460000D01*
X159911310Y-147460000D01*
X160144699Y-147363327D01*
X160323327Y-147184698D01*
X160420000Y-146951309D01*
X160420000Y-146160750D01*
X160261250Y-146002000D01*
X159512000Y-146002000D01*
X159258000Y-146002000D01*
X158508750Y-146002000D01*
X158350000Y-146160750D01*
X152781654Y-146160750D01*
X152307687Y-145686784D01*
X152385000Y-145702440D01*
X153685000Y-145702440D01*
X153920317Y-145658162D01*
X154136441Y-145519090D01*
X154281431Y-145306890D01*
X154303993Y-145195477D01*
X154321838Y-145290317D01*
X154460910Y-145506441D01*
X154673110Y-145651431D01*
X154925000Y-145702440D01*
X156225000Y-145702440D01*
X156460317Y-145658162D01*
X156676441Y-145519090D01*
X156821431Y-145306890D01*
X156855227Y-145140000D01*
X157534446Y-145140000D01*
X157634999Y-145160001D01*
X158350000Y-145160001D01*
X158350000Y-145589250D01*
X158508750Y-145748000D01*
X159258000Y-145748000D01*
X159258000Y-145728000D01*
X159512000Y-145728000D01*
X159512000Y-145748000D01*
X160261250Y-145748000D01*
X160348500Y-145660750D01*
X161300000Y-145660750D01*
X161300000Y-146251309D01*
X161396673Y-146484698D01*
X161575301Y-146663327D01*
X161808690Y-146760000D01*
X162274250Y-146760000D01*
X162433000Y-146601250D01*
X162433000Y-145502000D01*
X161458750Y-145502000D01*
X161300000Y-145660750D01*
X160348500Y-145660750D01*
X160420000Y-145589250D01*
X160420000Y-144798691D01*
X160338627Y-144602241D01*
X160468428Y-144472440D01*
X160735000Y-144472440D01*
X160970317Y-144428162D01*
X161186441Y-144289090D01*
X161331431Y-144076890D01*
X161364887Y-143911677D01*
X161470910Y-144076441D01*
X161470910Y-144076441D01*
G37*
X161470910Y-144076441D02*
X161539006Y-144122969D01*
X161396673Y-144265302D01*
X161300000Y-144498691D01*
X161300000Y-145089250D01*
X161458750Y-145248000D01*
X162433000Y-145248000D01*
X162433000Y-145228000D01*
X162687000Y-145228000D01*
X162687000Y-145248000D01*
X162707000Y-145248000D01*
X162707000Y-145502000D01*
X162687000Y-145502000D01*
X162687000Y-146601250D01*
X162845750Y-146760000D01*
X162850001Y-146760000D01*
X162850001Y-148123133D01*
X162622133Y-148351001D01*
X154971905Y-148351001D01*
X152781654Y-146160750D01*
X158350000Y-146160750D01*
X158350000Y-146951309D01*
X158446673Y-147184698D01*
X158625301Y-147363327D01*
X158858690Y-147460000D01*
X159099250Y-147460000D01*
X159258000Y-147301250D01*
X159258000Y-146002000D01*
X159512000Y-146002000D01*
X159512000Y-147301250D01*
X159670750Y-147460000D01*
X159911310Y-147460000D01*
X160144699Y-147363327D01*
X160323327Y-147184698D01*
X160420000Y-146951309D01*
X160420000Y-146160750D01*
X160261250Y-146002000D01*
X159512000Y-146002000D01*
X159258000Y-146002000D01*
X158508750Y-146002000D01*
X158350000Y-146160750D01*
X152781654Y-146160750D01*
X152307687Y-145686784D01*
X152385000Y-145702440D01*
X153685000Y-145702440D01*
X153920317Y-145658162D01*
X154136441Y-145519090D01*
X154281431Y-145306890D01*
X154303993Y-145195477D01*
X154321838Y-145290317D01*
X154460910Y-145506441D01*
X154673110Y-145651431D01*
X154925000Y-145702440D01*
X156225000Y-145702440D01*
X156460317Y-145658162D01*
X156676441Y-145519090D01*
X156821431Y-145306890D01*
X156855227Y-145140000D01*
X157534446Y-145140000D01*
X157634999Y-145160001D01*
X158350000Y-145160001D01*
X158350000Y-145589250D01*
X158508750Y-145748000D01*
X159258000Y-145748000D01*
X159258000Y-145728000D01*
X159512000Y-145728000D01*
X159512000Y-145748000D01*
X160261250Y-145748000D01*
X160348500Y-145660750D01*
X161300000Y-145660750D01*
X161300000Y-146251309D01*
X161396673Y-146484698D01*
X161575301Y-146663327D01*
X161808690Y-146760000D01*
X162274250Y-146760000D01*
X162433000Y-146601250D01*
X162433000Y-145502000D01*
X161458750Y-145502000D01*
X161300000Y-145660750D01*
X160348500Y-145660750D01*
X160420000Y-145589250D01*
X160420000Y-144798691D01*
X160338627Y-144602241D01*
X160468428Y-144472440D01*
X160735000Y-144472440D01*
X160970317Y-144428162D01*
X161186441Y-144289090D01*
X161331431Y-144076890D01*
X161364887Y-143911677D01*
X161470910Y-144076441D01*
G36*
X154335000Y-131612002D02*
X154473400Y-131612002D01*
X154429505Y-131676245D01*
X154335000Y-131770750D01*
X154335000Y-131886310D01*
X154343468Y-131906753D01*
X154322560Y-132010000D01*
X154322560Y-132560000D01*
X154342450Y-132665705D01*
X154335000Y-132683690D01*
X154335000Y-132799250D01*
X154431401Y-132895651D01*
X154505910Y-133011441D01*
X154613397Y-133084884D01*
X154518559Y-133145910D01*
X154429505Y-133276245D01*
X154335000Y-133370750D01*
X154335000Y-133486310D01*
X154343468Y-133506753D01*
X154322560Y-133610000D01*
X154322560Y-134160000D01*
X154346944Y-134289589D01*
X154322560Y-134410000D01*
X154322560Y-134960000D01*
X154366838Y-135195317D01*
X154505910Y-135411441D01*
X154718110Y-135556431D01*
X154970000Y-135607440D01*
X155010000Y-135607440D01*
X155010000Y-137266003D01*
X155067852Y-137556842D01*
X155232599Y-137803404D01*
X155490875Y-138061680D01*
X155490835Y-138107167D01*
X155632880Y-138450943D01*
X155895670Y-138714192D01*
X156239198Y-138856838D01*
X156390749Y-138856970D01*
X156432883Y-138958943D01*
X156601921Y-139128277D01*
X155960199Y-139769999D01*
X154010001Y-139769999D01*
X153719162Y-139827851D01*
X153472600Y-139992598D01*
X153257638Y-140207560D01*
X152385000Y-140207560D01*
X152149683Y-140251838D01*
X152019989Y-140335294D01*
X152019989Y-134404377D01*
X152156690Y-134461000D01*
X152622250Y-134461000D01*
X152781000Y-134302250D01*
X152781000Y-133203000D01*
X153035000Y-133203000D01*
X153035000Y-134302250D01*
X153193750Y-134461000D01*
X153659310Y-134461000D01*
X153892699Y-134364327D01*
X154071327Y-134185698D01*
X154168000Y-133952309D01*
X154168000Y-133361750D01*
X154009250Y-133203000D01*
X153035000Y-133203000D01*
X152781000Y-133203000D01*
X152761000Y-133203000D01*
X152761000Y-132949000D01*
X152781000Y-132949000D01*
X152781000Y-132929000D01*
X153035000Y-132929000D01*
X153035000Y-132949000D01*
X154009250Y-132949000D01*
X154168000Y-132790250D01*
X154168000Y-132199691D01*
X154071327Y-131966302D01*
X153930090Y-131825064D01*
X153984441Y-131790090D01*
X154129431Y-131577890D01*
X154141154Y-131520000D01*
X154335000Y-131520000D01*
X154335000Y-131612002D01*
X154335000Y-131612002D01*
G37*
X154335000Y-131612002D02*
X154473400Y-131612002D01*
X154429505Y-131676245D01*
X154335000Y-131770750D01*
X154335000Y-131886310D01*
X154343468Y-131906753D01*
X154322560Y-132010000D01*
X154322560Y-132560000D01*
X154342450Y-132665705D01*
X154335000Y-132683690D01*
X154335000Y-132799250D01*
X154431401Y-132895651D01*
X154505910Y-133011441D01*
X154613397Y-133084884D01*
X154518559Y-133145910D01*
X154429505Y-133276245D01*
X154335000Y-133370750D01*
X154335000Y-133486310D01*
X154343468Y-133506753D01*
X154322560Y-133610000D01*
X154322560Y-134160000D01*
X154346944Y-134289589D01*
X154322560Y-134410000D01*
X154322560Y-134960000D01*
X154366838Y-135195317D01*
X154505910Y-135411441D01*
X154718110Y-135556431D01*
X154970000Y-135607440D01*
X155010000Y-135607440D01*
X155010000Y-137266003D01*
X155067852Y-137556842D01*
X155232599Y-137803404D01*
X155490875Y-138061680D01*
X155490835Y-138107167D01*
X155632880Y-138450943D01*
X155895670Y-138714192D01*
X156239198Y-138856838D01*
X156390749Y-138856970D01*
X156432883Y-138958943D01*
X156601921Y-139128277D01*
X155960199Y-139769999D01*
X154010001Y-139769999D01*
X153719162Y-139827851D01*
X153472600Y-139992598D01*
X153257638Y-140207560D01*
X152385000Y-140207560D01*
X152149683Y-140251838D01*
X152019989Y-140335294D01*
X152019989Y-134404377D01*
X152156690Y-134461000D01*
X152622250Y-134461000D01*
X152781000Y-134302250D01*
X152781000Y-133203000D01*
X153035000Y-133203000D01*
X153035000Y-134302250D01*
X153193750Y-134461000D01*
X153659310Y-134461000D01*
X153892699Y-134364327D01*
X154071327Y-134185698D01*
X154168000Y-133952309D01*
X154168000Y-133361750D01*
X154009250Y-133203000D01*
X153035000Y-133203000D01*
X152781000Y-133203000D01*
X152761000Y-133203000D01*
X152761000Y-132949000D01*
X152781000Y-132949000D01*
X152781000Y-132929000D01*
X153035000Y-132929000D01*
X153035000Y-132949000D01*
X154009250Y-132949000D01*
X154168000Y-132790250D01*
X154168000Y-132199691D01*
X154071327Y-131966302D01*
X153930090Y-131825064D01*
X153984441Y-131790090D01*
X154129431Y-131577890D01*
X154141154Y-131520000D01*
X154335000Y-131520000D01*
X154335000Y-131612002D01*
G36*
X162822560Y-130960000D02*
X162846944Y-131089589D01*
X162822560Y-131210000D01*
X162822560Y-131760000D01*
X162842450Y-131865705D01*
X162835000Y-131883690D01*
X162835000Y-131933448D01*
X162640014Y-131738121D01*
X162296486Y-131595475D01*
X161924520Y-131595151D01*
X161580744Y-131737196D01*
X161317495Y-131999986D01*
X161228309Y-132214769D01*
X161015057Y-132302883D01*
X160751808Y-132565673D01*
X160609162Y-132909201D01*
X160608838Y-133281167D01*
X160750883Y-133624943D01*
X161013673Y-133888192D01*
X161357201Y-134030838D01*
X161389641Y-134030866D01*
X162046335Y-134687560D01*
X161745000Y-134687560D01*
X161615411Y-134711944D01*
X161495000Y-134687560D01*
X160945000Y-134687560D01*
X160815411Y-134711944D01*
X160695000Y-134687560D01*
X160574141Y-134687560D01*
X160574162Y-134663433D01*
X160432117Y-134319657D01*
X160169327Y-134056408D01*
X159825799Y-133913762D01*
X159453833Y-133913438D01*
X159110057Y-134055483D01*
X158846808Y-134318273D01*
X158826326Y-134367599D01*
X158806517Y-134319657D01*
X158543727Y-134056408D01*
X158200199Y-133913762D01*
X157828233Y-133913438D01*
X157484457Y-134055483D01*
X157221208Y-134318273D01*
X157206738Y-134353122D01*
X157193056Y-134280411D01*
X157217440Y-134160000D01*
X157217440Y-133610000D01*
X157197550Y-133504295D01*
X157205000Y-133486310D01*
X157205000Y-133370750D01*
X157108599Y-133274349D01*
X157034090Y-133158559D01*
X156977657Y-133120000D01*
X156995000Y-133120000D01*
X157314541Y-133056439D01*
X157585434Y-132875434D01*
X157660435Y-132800433D01*
X157722865Y-132707000D01*
X157841440Y-132529540D01*
X157905001Y-132209999D01*
X157905001Y-130809999D01*
X157887099Y-130720000D01*
X162822560Y-130720000D01*
X162822560Y-130960000D01*
X162822560Y-130960000D01*
G37*
X162822560Y-130960000D02*
X162846944Y-131089589D01*
X162822560Y-131210000D01*
X162822560Y-131760000D01*
X162842450Y-131865705D01*
X162835000Y-131883690D01*
X162835000Y-131933448D01*
X162640014Y-131738121D01*
X162296486Y-131595475D01*
X161924520Y-131595151D01*
X161580744Y-131737196D01*
X161317495Y-131999986D01*
X161228309Y-132214769D01*
X161015057Y-132302883D01*
X160751808Y-132565673D01*
X160609162Y-132909201D01*
X160608838Y-133281167D01*
X160750883Y-133624943D01*
X161013673Y-133888192D01*
X161357201Y-134030838D01*
X161389641Y-134030866D01*
X162046335Y-134687560D01*
X161745000Y-134687560D01*
X161615411Y-134711944D01*
X161495000Y-134687560D01*
X160945000Y-134687560D01*
X160815411Y-134711944D01*
X160695000Y-134687560D01*
X160574141Y-134687560D01*
X160574162Y-134663433D01*
X160432117Y-134319657D01*
X160169327Y-134056408D01*
X159825799Y-133913762D01*
X159453833Y-133913438D01*
X159110057Y-134055483D01*
X158846808Y-134318273D01*
X158826326Y-134367599D01*
X158806517Y-134319657D01*
X158543727Y-134056408D01*
X158200199Y-133913762D01*
X157828233Y-133913438D01*
X157484457Y-134055483D01*
X157221208Y-134318273D01*
X157206738Y-134353122D01*
X157193056Y-134280411D01*
X157217440Y-134160000D01*
X157217440Y-133610000D01*
X157197550Y-133504295D01*
X157205000Y-133486310D01*
X157205000Y-133370750D01*
X157108599Y-133274349D01*
X157034090Y-133158559D01*
X156977657Y-133120000D01*
X156995000Y-133120000D01*
X157314541Y-133056439D01*
X157585434Y-132875434D01*
X157660435Y-132800433D01*
X157722865Y-132707000D01*
X157841440Y-132529540D01*
X157905001Y-132209999D01*
X157905001Y-130809999D01*
X157887099Y-130720000D01*
X162822560Y-130720000D01*
X162822560Y-130960000D01*
G36*
X157252560Y-111891080D02*
X157112599Y-111984599D01*
X157037598Y-112059600D01*
X156872851Y-112306162D01*
X156814999Y-112597001D01*
X156814999Y-117886999D01*
X156872851Y-118177838D01*
X157037598Y-118424400D01*
X157572469Y-118959271D01*
X157503569Y-119060110D01*
X157452560Y-119312000D01*
X157452560Y-120812000D01*
X157496838Y-121047317D01*
X157635910Y-121263441D01*
X157848110Y-121408431D01*
X157861197Y-121411081D01*
X157648559Y-121547910D01*
X157503569Y-121760110D01*
X157452560Y-122012000D01*
X157452560Y-123512000D01*
X157496838Y-123747317D01*
X157572421Y-123864777D01*
X157482599Y-123954599D01*
X157317852Y-124201161D01*
X157260000Y-124492000D01*
X157260000Y-126187560D01*
X156945000Y-126187560D01*
X156709683Y-126231838D01*
X156493559Y-126370910D01*
X156348569Y-126583110D01*
X156297560Y-126835000D01*
X156297560Y-128162560D01*
X154970000Y-128162560D01*
X154734683Y-128206838D01*
X154518559Y-128345910D01*
X154373569Y-128558110D01*
X154322560Y-128810000D01*
X154322560Y-129360000D01*
X154346944Y-129489589D01*
X154322560Y-129610000D01*
X154322560Y-129850000D01*
X154180440Y-129850000D01*
X154180440Y-129826000D01*
X154136162Y-129590683D01*
X153997090Y-129374559D01*
X153868720Y-129286847D01*
X153892828Y-129228788D01*
X153893170Y-128836931D01*
X153743529Y-128474771D01*
X153466686Y-128197445D01*
X153104788Y-128047172D01*
X152712931Y-128046830D01*
X152350771Y-128196471D01*
X152073445Y-128473314D01*
X151923172Y-128835212D01*
X151922830Y-129227069D01*
X151947673Y-129287193D01*
X151831559Y-129361910D01*
X151686569Y-129574110D01*
X151635560Y-129826000D01*
X151635560Y-130792572D01*
X150710000Y-131718132D01*
X150710000Y-121443750D01*
X150915000Y-121443750D01*
X150915000Y-122134309D01*
X151011673Y-122367698D01*
X151190301Y-122546327D01*
X151423690Y-122643000D01*
X152114250Y-122643000D01*
X152273000Y-122484250D01*
X152273000Y-121285000D01*
X151073750Y-121285000D01*
X150915000Y-121443750D01*
X150710000Y-121443750D01*
X150710000Y-120181691D01*
X150915000Y-120181691D01*
X150915000Y-120872250D01*
X151073750Y-121031000D01*
X152273000Y-121031000D01*
X152273000Y-119831750D01*
X152527000Y-119831750D01*
X152527000Y-121031000D01*
X152547000Y-121031000D01*
X152547000Y-121285000D01*
X152527000Y-121285000D01*
X152527000Y-122484250D01*
X152685750Y-122643000D01*
X153376310Y-122643000D01*
X153609699Y-122546327D01*
X153788327Y-122367698D01*
X153860597Y-122193223D01*
X153889946Y-122237147D01*
X154371715Y-122559054D01*
X154940000Y-122672093D01*
X155508285Y-122559054D01*
X155990054Y-122237147D01*
X156311961Y-121755378D01*
X156425000Y-121187093D01*
X156425000Y-121128907D01*
X156311961Y-120560622D01*
X155990054Y-120078853D01*
X155508285Y-119756946D01*
X154940000Y-119643907D01*
X154371715Y-119756946D01*
X153889946Y-120078853D01*
X153860597Y-120122777D01*
X153788327Y-119948302D01*
X153609699Y-119769673D01*
X153376310Y-119673000D01*
X152685750Y-119673000D01*
X152527000Y-119831750D01*
X152273000Y-119831750D01*
X152114250Y-119673000D01*
X151423690Y-119673000D01*
X151190301Y-119769673D01*
X151011673Y-119948302D01*
X150915000Y-120181691D01*
X150710000Y-120181691D01*
X150710000Y-111710000D01*
X157252560Y-111710000D01*
X157252560Y-111891080D01*
X157252560Y-111891080D01*
G37*
X157252560Y-111891080D02*
X157112599Y-111984599D01*
X157037598Y-112059600D01*
X156872851Y-112306162D01*
X156814999Y-112597001D01*
X156814999Y-117886999D01*
X156872851Y-118177838D01*
X157037598Y-118424400D01*
X157572469Y-118959271D01*
X157503569Y-119060110D01*
X157452560Y-119312000D01*
X157452560Y-120812000D01*
X157496838Y-121047317D01*
X157635910Y-121263441D01*
X157848110Y-121408431D01*
X157861197Y-121411081D01*
X157648559Y-121547910D01*
X157503569Y-121760110D01*
X157452560Y-122012000D01*
X157452560Y-123512000D01*
X157496838Y-123747317D01*
X157572421Y-123864777D01*
X157482599Y-123954599D01*
X157317852Y-124201161D01*
X157260000Y-124492000D01*
X157260000Y-126187560D01*
X156945000Y-126187560D01*
X156709683Y-126231838D01*
X156493559Y-126370910D01*
X156348569Y-126583110D01*
X156297560Y-126835000D01*
X156297560Y-128162560D01*
X154970000Y-128162560D01*
X154734683Y-128206838D01*
X154518559Y-128345910D01*
X154373569Y-128558110D01*
X154322560Y-128810000D01*
X154322560Y-129360000D01*
X154346944Y-129489589D01*
X154322560Y-129610000D01*
X154322560Y-129850000D01*
X154180440Y-129850000D01*
X154180440Y-129826000D01*
X154136162Y-129590683D01*
X153997090Y-129374559D01*
X153868720Y-129286847D01*
X153892828Y-129228788D01*
X153893170Y-128836931D01*
X153743529Y-128474771D01*
X153466686Y-128197445D01*
X153104788Y-128047172D01*
X152712931Y-128046830D01*
X152350771Y-128196471D01*
X152073445Y-128473314D01*
X151923172Y-128835212D01*
X151922830Y-129227069D01*
X151947673Y-129287193D01*
X151831559Y-129361910D01*
X151686569Y-129574110D01*
X151635560Y-129826000D01*
X151635560Y-130792572D01*
X150710000Y-131718132D01*
X150710000Y-121443750D01*
X150915000Y-121443750D01*
X150915000Y-122134309D01*
X151011673Y-122367698D01*
X151190301Y-122546327D01*
X151423690Y-122643000D01*
X152114250Y-122643000D01*
X152273000Y-122484250D01*
X152273000Y-121285000D01*
X151073750Y-121285000D01*
X150915000Y-121443750D01*
X150710000Y-121443750D01*
X150710000Y-120181691D01*
X150915000Y-120181691D01*
X150915000Y-120872250D01*
X151073750Y-121031000D01*
X152273000Y-121031000D01*
X152273000Y-119831750D01*
X152527000Y-119831750D01*
X152527000Y-121031000D01*
X152547000Y-121031000D01*
X152547000Y-121285000D01*
X152527000Y-121285000D01*
X152527000Y-122484250D01*
X152685750Y-122643000D01*
X153376310Y-122643000D01*
X153609699Y-122546327D01*
X153788327Y-122367698D01*
X153860597Y-122193223D01*
X153889946Y-122237147D01*
X154371715Y-122559054D01*
X154940000Y-122672093D01*
X155508285Y-122559054D01*
X155990054Y-122237147D01*
X156311961Y-121755378D01*
X156425000Y-121187093D01*
X156425000Y-121128907D01*
X156311961Y-120560622D01*
X155990054Y-120078853D01*
X155508285Y-119756946D01*
X154940000Y-119643907D01*
X154371715Y-119756946D01*
X153889946Y-120078853D01*
X153860597Y-120122777D01*
X153788327Y-119948302D01*
X153609699Y-119769673D01*
X153376310Y-119673000D01*
X152685750Y-119673000D01*
X152527000Y-119831750D01*
X152273000Y-119831750D01*
X152114250Y-119673000D01*
X151423690Y-119673000D01*
X151190301Y-119769673D01*
X151011673Y-119948302D01*
X150915000Y-120181691D01*
X150710000Y-120181691D01*
X150710000Y-111710000D01*
X157252560Y-111710000D01*
X157252560Y-111891080D01*
G36*
X160036838Y-121047317D02*
X160175910Y-121263441D01*
X160388110Y-121408431D01*
X160421490Y-121415191D01*
X160280301Y-121473673D01*
X160101673Y-121652302D01*
X160017840Y-121854692D01*
X160003162Y-121776683D01*
X159864090Y-121560559D01*
X159651890Y-121415569D01*
X159638803Y-121412919D01*
X159851441Y-121276090D01*
X159996431Y-121063890D01*
X160018993Y-120952477D01*
X160036838Y-121047317D01*
X160036838Y-121047317D01*
G37*
X160036838Y-121047317D02*
X160175910Y-121263441D01*
X160388110Y-121408431D01*
X160421490Y-121415191D01*
X160280301Y-121473673D01*
X160101673Y-121652302D01*
X160017840Y-121854692D01*
X160003162Y-121776683D01*
X159864090Y-121560559D01*
X159651890Y-121415569D01*
X159638803Y-121412919D01*
X159851441Y-121276090D01*
X159996431Y-121063890D01*
X160018993Y-120952477D01*
X160036838Y-121047317D01*
M02*
